<svg width="42" height="42" viewBox="0 0 42 42" fill="none" xmlns="http://www.w3.org/2000/svg">
<path d="M40.5024 20.5012C40.5024 31.5475 31.5475 40.5024 20.5012 40.5024C9.45483 40.5024 0.5 31.5475 0.5 20.5012C0.5 9.45483 9.45483 0.5 20.5012 0.5C31.5475 0.5 40.5024 9.45483 40.5024 20.5012Z" fill="#4D87FF" stroke="#083863"/>
<path d="M8.59091 18.1818H9.40909L9.34091 16.3068L10.9261 17.3125L11.3352 16.5966L9.66477 15.7273L11.3352 14.858L10.9261 14.142L9.34091 15.1477L9.40909 13.2727H8.59091L8.65909 15.1477L7.07386 14.142L6.66477 14.858L8.33523 15.7273L6.66477 16.5966L7.07386 17.3125L8.65909 16.3068L8.59091 18.1818ZM14.5909 18.1818H15.4091L15.3409 16.3068L16.9261 17.3125L17.3352 16.5966L15.6648 15.7273L17.3352 14.858L16.9261 14.142L15.3409 15.1477L15.4091 13.2727H14.5909L14.6591 15.1477L13.0739 14.142L12.6648 14.858L14.3352 15.7273L12.6648 16.5966L13.0739 17.3125L14.6591 16.3068L14.5909 18.1818ZM20.5909 18.1818H21.4091L21.3409 16.3068L22.9261 17.3125L23.3352 16.5966L21.6648 15.7273L23.3352 14.858L22.9261 14.142L21.3409 15.1477L21.4091 13.2727H20.5909L20.6591 15.1477L19.0739 14.142L18.6648 14.858L20.3352 15.7273L18.6648 16.5966L19.0739 17.3125L20.6591 16.3068L20.5909 18.1818ZM26.5909 18.1818H27.4091L27.3409 16.3068L28.9261 17.3125L29.3352 16.5966L27.6648 15.7273L29.3352 14.858L28.9261 14.142L27.3409 15.1477L27.4091 13.2727H26.5909L26.6591 15.1477L25.0739 14.142L24.6648 14.858L26.3352 15.7273L24.6648 16.5966L25.0739 17.3125L26.6591 16.3068L26.5909 18.1818ZM32.5909 18.1818H33.4091L33.3409 16.3068L34.9261 17.3125L35.3352 16.5966L33.6648 15.7273L35.3352 14.858L34.9261 14.142L33.3409 15.1477L33.4091 13.2727H32.5909L32.6591 15.1477L31.0739 14.142L30.6648 14.858L32.3352 15.7273L30.6648 16.5966L31.0739 17.3125L32.6591 16.3068L32.5909 18.1818Z" fill="white"/>
<circle r="3.90889" transform="matrix(0.887618 0.460581 0.460581 -0.887618 20.27 25.27)" stroke="white" stroke-width="1.5" stroke-linejoin="round"/>
<line x1="0.75" y1="-0.75" x2="7.5564" y2="-0.75" transform="matrix(0.887618 0.460581 0.460581 -0.887618 23.74 27.0707)" stroke="white" stroke-width="1.5" stroke-linecap="round" stroke-linejoin="round"/>
</svg>
