<svg width="41" height="41" viewBox="0 0 41 41" fill="none" xmlns="http://www.w3.org/2000/svg">
<g clip-path="url(#clip0)">
<path d="M40.5024 20.5012C40.5024 31.5475 31.5475 40.5024 20.5012 40.5024C9.45483 40.5024 0.5 31.5475 0.5 20.5012C0.5 9.45483 9.45483 0.5 20.5012 0.5C31.5475 0.5 40.5024 9.45483 40.5024 20.5012Z" fill="#017DB9" stroke="#083863"/>
<path d="M28.1297 22.8311C28.7463 22.8311 29.2462 22.3312 29.2462 21.7146C29.2462 21.098 28.7463 20.5981 28.1297 20.5981C27.5131 20.5981 27.0132 21.098 27.0132 21.7146C27.0132 22.3312 27.5131 22.8311 28.1297 22.8311Z" stroke="white" stroke-width="0.700855" stroke-miterlimit="10"/>
<path d="M27.9522 19.697C26.8381 19.697 25.9321 20.6006 25.9321 21.717C25.9321 22.8312 26.8357 23.7371 27.9522 23.7371H31.7416V19.697H27.9522Z" stroke="white" stroke-width="0.700855" stroke-miterlimit="10"/>
<path opacity="0.25" d="M17.8944 34.1876C18.3661 34.1876 18.7484 33.8053 18.7484 33.3337C18.7484 32.862 18.3661 32.4797 17.8944 32.4797C17.4228 32.4797 17.0405 32.862 17.0405 33.3337C17.0405 33.8053 17.4228 34.1876 17.8944 34.1876Z" fill="white"/>
<path opacity="0.5" d="M20.5009 34.1876C20.9725 34.1876 21.3548 33.8053 21.3548 33.3337C21.3548 32.862 20.9725 32.4797 20.5009 32.4797C20.0293 32.4797 19.647 32.862 19.647 33.3337C19.647 33.8053 20.0293 34.1876 20.5009 34.1876Z" fill="white"/>
<path d="M23.1071 34.1876C23.5787 34.1876 23.961 33.8053 23.961 33.3337C23.961 32.862 23.5787 32.4797 23.1071 32.4797C22.6355 32.4797 22.2532 32.862 22.2532 33.3337C22.2532 33.8053 22.6355 34.1876 23.1071 34.1876Z" fill="white"/>
<path d="M8.33105 26.1259V25" stroke="white" stroke-width="1.05128" stroke-miterlimit="10" stroke-linecap="round"/>
<path d="M8.33122 23.3397V12.1015C8.33122 10.8621 9.33653 9.85675 10.576 9.85675H31.7963V31.1456H10.5737C9.33417 31.1456 8.32886 30.1403 8.32886 28.9008V27.6211" stroke="white" stroke-width="1.05128" stroke-miterlimit="10" stroke-linecap="round"/>
<path d="M13.876 15.0252L22.1715 6.72727C22.4081 6.49073 22.7889 6.49073 23.0255 6.72727L31.3329 15.0252" fill="white"/>
<path d="M13.876 15.0252L22.1715 6.72727C22.4081 6.49073 22.7889 6.49073 23.0255 6.72727L31.3329 15.0252" stroke="#017DB9" stroke-width="1.05128" stroke-miterlimit="10"/>
<path d="M17.5139 15.0252L22.0579 10.4812C22.3086 10.2305 22.7155 10.2305 22.9639 10.4812L27.5079 15.0252" stroke="#017DB9" stroke-width="1.05128" stroke-miterlimit="10"/>
<path d="M8.33105 12.0637V12.3049C8.33105 13.8496 9.58237 15.1009 11.127 15.1009H31.7961" stroke="white" stroke-width="1.05128" stroke-miterlimit="10"/>
</g>
<defs>
<clipPath id="clip0">
<rect width="41" height="41" fill="white"/>
</clipPath>
</defs>
</svg>
