<svg width="22" height="35" viewBox="0 0 22 35" fill="none" xmlns="http://www.w3.org/2000/svg">
<g clip-path="url(#clip0)">
<path d="M21.4373 31.4468L21.4373 3.55323C21.4373 1.59084 19.8464 0 17.884 0L3.55326 0C1.59086 0 2.47955e-05 1.59084 2.47955e-05 3.55323L2.47955e-05 31.4468C2.47955e-05 33.4092 1.59086 35 3.55326 35H17.884C19.8464 35 21.4373 33.4092 21.4373 31.4468Z" fill="#077DBA"/>
<path d="M17.9879 1.17853H3.45088C2.13937 1.17853 1.07617 2.24172 1.07617 3.55324V31.4468C1.07617 32.7583 2.13937 33.8215 3.45088 33.8215H17.9879C19.2994 33.8215 20.3626 32.7583 20.3626 31.4468V3.55324C20.3626 2.24172 19.2994 1.17853 17.9879 1.17853Z" fill="white"/>
<path d="M10.7182 4.55695C8.96228 4.55903 7.27883 5.2575 6.03718 6.49915C4.79552 7.74081 4.09705 9.42425 4.09497 11.1802C4.09497 15.7705 10.7261 23.6116 10.7261 23.6116C10.7261 23.6116 17.3415 15.5447 17.3415 11.1802C17.3399 9.42409 16.6416 7.74034 15.3999 6.49858C14.1581 5.25681 12.4744 4.55851 10.7182 4.55695ZM12.7178 13.1189C12.3225 13.5142 11.8189 13.7834 11.2706 13.8925C10.7223 14.0015 10.154 13.9456 9.6375 13.7316C9.12102 13.5177 8.67958 13.1554 8.369 12.6906C8.05841 12.2258 7.89264 11.6793 7.89264 11.1203C7.89264 10.5613 8.05841 10.0148 8.369 9.54998C8.67958 9.08517 9.12102 8.72289 9.6375 8.50897C10.154 8.29504 10.7223 8.23908 11.2706 8.34815C11.8189 8.45722 12.3225 8.72643 12.7178 9.12174C12.9814 9.38354 13.1906 9.6949 13.3334 10.0379C13.4762 10.3809 13.5497 10.7488 13.5497 11.1203C13.5497 11.4918 13.4762 11.8597 13.3334 12.2027C13.1906 12.5457 12.9814 12.8571 12.7178 13.1189Z" fill="#077DBA"/>
<path d="M6.58772 26.8891L5.89258 26.6819L5.99846 26.3344L6.6936 26.5922L6.67288 25.8004H7.02506L7.00204 26.6037L7.68567 26.3505L7.79155 26.7004L7.0849 26.9098L7.54066 27.5336L7.25524 27.75L6.8271 27.0871L6.41278 27.7339L6.12506 27.5244L6.58772 26.8891ZM8.6179 26.8891L7.92276 26.6819L8.02864 26.3344L8.72378 26.5922L8.70306 25.8004H9.05524L9.03222 26.6037L9.71585 26.3505L9.82173 26.7004L9.11508 26.9098L9.57084 27.5336L9.28542 27.75L8.85728 27.0871L8.44296 27.7339L8.15524 27.5244L8.6179 26.8891ZM10.6481 26.8891L9.95294 26.6819L10.0588 26.3344L10.754 26.5922L10.7332 25.8004H11.0854L11.0624 26.6037L11.746 26.3505L11.8519 26.7004L11.1453 26.9098L11.601 27.5336L11.3156 27.75L10.8875 27.0871L10.4731 27.7339L10.1854 27.5244L10.6481 26.8891ZM12.6783 26.8891L11.9831 26.6819L12.089 26.3344L12.7841 26.5922L12.7634 25.8004H13.1156L13.0926 26.6037L13.7762 26.3505L13.8821 26.7004L13.1754 26.9098L13.6312 27.5336L13.3458 27.75L12.9176 27.0871L12.5033 27.7339L12.2156 27.5244L12.6783 26.8891ZM14.7084 26.8891L14.0133 26.6819L14.1192 26.3344L14.8143 26.5922L14.7936 25.8004H15.1458L15.1228 26.6037L15.8064 26.3505L15.9123 26.7004L15.2056 26.9098L15.6614 27.5336L15.376 27.75L14.9478 27.0871L14.5335 27.7339L14.2458 27.5244L14.7084 26.8891Z" fill="#077DBA"/>
<path d="M10.7183 32.3169C11.1967 32.3169 11.5845 31.9291 11.5845 31.4507C11.5845 30.9723 11.1967 30.5845 10.7183 30.5845C10.2399 30.5845 9.85205 30.9723 9.85205 31.4507C9.85205 31.9291 10.2399 32.3169 10.7183 32.3169Z" fill="#077DBA"/>
</g>
<defs>
<clipPath id="clip0">
<rect width="21.4372" height="35" fill="white"/>
</clipPath>
</defs>
</svg>
