<svg width="17" height="19" viewBox="0 0 17 19" fill="none" xmlns="http://www.w3.org/2000/svg">
<path d="M13.44 15.35L13.85 14.89L15.05 13.6L14.17 12.22C14.14 12.17 14.13 12.12 14.14 12.07L14.38 11.12C14.4 11.06 14.44 11.01 14.5 10.98L16.08 10.38C16.16 10.35 16.21 10.27 16.21 10.19V8.09C16.21 8 16.15 7.92 16.06 7.89L14.5 7.4C14.44 7.38 14.38 7.33 14.36 7.26L13.98 6.08C13.96 6.03 13.97 5.97 13.99 5.92L14.76 4.4C14.8 4.32 14.78 4.22 14.72 4.15L13.28 2.78C13.21 2.72 13.11 2.7 13.04 2.75L11.82 3.42C11.77 3.45 11.71 3.45 11.65 3.43L10.46 3.01C10.4 2.99 10.35 2.94 10.33 2.89L9.7 1.18C9.67 1.1 9.58999 1.05 9.50999 1.04L7.73 1C7.63 1 7.54999 1.06 7.51999 1.15L7.00999 2.94C6.98999 3 6.94999 3.05 6.89999 3.07L5.76999 3.6C5.69999 3.63 5.62999 3.63 5.56999 3.58L4.28 2.72C4.2 2.67 4.08999 2.68 4.01999 2.74L2.50999 4.15C2.43999 4.21 2.41999 4.31 2.45999 4.39L3.15999 5.84C3.17999 5.89 3.19 5.94 3.17 6L2.78999 7.15C2.76999 7.21 2.71999 7.26 2.65999 7.28L1.14 7.82C1.06 7.85 1 7.93 1 8.02V10.19C1 10.28 1.05999 10.36 1.14999 10.39L2.81999 10.88C2.88999 10.9 2.93999 10.95 2.95999 11.02L3.28 12.03C3.3 12.08 3.28999 12.14 3.26999 12.19L2.51999 13.67C2.47999 13.75 2.48999 13.84 2.54999 13.9L3.65999 15.15" stroke="black" stroke-width="0.7" stroke-miterlimit="10" stroke-linecap="round"/>
<path d="M10.56 7.53C10.6 7.58 10.64 7.63 10.67 7.68" stroke="black" stroke-width="0.7" stroke-miterlimit="10" stroke-linecap="round"/>
<path d="M11.06 8.55001C11.1 8.73001 11.12 8.92001 11.12 9.12001C11.12 10.51 9.98999 11.64 8.59999 11.64C7.20999 11.64 6.07999 10.51 6.07999 9.12001C6.07999 7.73001 7.20999 6.60001 8.59999 6.60001C9.11999 6.60001 9.60999 6.76001 10.01 7.03001" stroke="black" stroke-width="0.7" stroke-miterlimit="10" stroke-linecap="round"/>
<path d="M13.42 15.69C12.9 13.44 10.89 11.76 8.47998 11.76C5.67998 11.76 3.40997 14.03 3.40997 16.83V18.45H13.55V17.55" stroke="black" stroke-width="0.7" stroke-miterlimit="10" stroke-linecap="round"/>
<path d="M13.55 17.09C13.6881 17.09 13.8 16.9781 13.8 16.84C13.8 16.7019 13.6881 16.59 13.55 16.59C13.4119 16.59 13.3 16.7019 13.3 16.84C13.3 16.9781 13.4119 17.09 13.55 17.09Z" fill="black"/>
</svg>
