<svg width="20" height="20" viewBox="0 0 20 20" fill="none" xmlns="http://www.w3.org/2000/svg">
<path d="M3.65001 5V2.64C3.65001 1.74 4.38001 1 5.29001 1H8.99001C9.89001 1 10.63 1.73 10.63 2.64V5.01" stroke="black" stroke-width="0.7" stroke-miterlimit="10" stroke-linecap="round"/>
<path d="M8.41999 4.45001C7.57999 4.36001 5.33 4.03001 3.27 5.23001C2.91 5.44001 2.94 6.52001 3.91 6.24001C4.42 6.10001 5.65 5.53001 6.99 5.55001C8.47 5.57001 9.82 5.98001 10.21 6.22001C10.59 6.46001 11.21 6.36001 11.3 5.85001C11.4 5.34001 10.81 5.12001 10.61 5.05001C10.41 4.98001 9.41 4.62001 9.41 4.62001" stroke="black" stroke-width="0.7" stroke-miterlimit="10" stroke-linecap="round"/>
<path d="M3.99001 6.23999V8.45999C3.99001 9.99999 5.58 11.25 7.08 11.25H7.28C8.78 11.25 10.36 9.99999 10.36 8.45999V6.29999" stroke="black" stroke-width="0.7" stroke-miterlimit="10" stroke-linecap="round"/>
<path d="M3.8 7.97001C3.27 7.97001 2.84001 7.61001 2.84001 7.16001C2.84001 6.71001 3.27 6.35001 3.8 6.35001" stroke="black" stroke-width="0.7" stroke-miterlimit="10" stroke-linecap="round"/>
<path d="M10.54 6.35999C11.07 6.35999 11.5 6.71999 11.5 7.16999C11.5 7.61999 11.07 7.97999 10.54 7.97999" stroke="black" stroke-width="0.7" stroke-miterlimit="10" stroke-linecap="round"/>
<path d="M5.52 10.91C5.47 11.21 5.63001 11.56 5.46001 11.82C5.39001 11.92 5.28 11.99 5.17 12.04C4.89 12.17 4.62001 12.26 4.31001 12.3C3.63001 12.41 2.95 12.54 2.3 12.84C1.68 13.13 1.16001 13.68 1.04001 14.36C1.01001 14.51 1 14.66 1 14.81C1 15.69 1 19.44 1 19.44" stroke="black" stroke-width="0.7" stroke-miterlimit="10" stroke-linecap="round"/>
<path d="M8.72 10.91C8.77 11.21 8.67001 11.53 8.84001 11.79C8.91001 11.89 9.02 11.96 9.13 12.01C9.41 12.14 9.64 12.16 9.94 12.23C10.63 12.41 11.43 12.33 12.05 12.84C12.58 13.28 13.34 14.64 13.67 15.27C13.75 15.43 13.96 15.46 14.08 15.33C14.8 14.56 16.88 12.35 17.13 12.1C17.43 11.8 18.11 11.64 18.64 12.2C19.18 12.76 18.84 13.48 18.59 13.81C18.34 14.13 16.05 16.71 16.05 16.71" stroke="black" stroke-width="0.7" stroke-miterlimit="10" stroke-linecap="round"/>
<path d="M3.86 17.33V19.44" stroke="black" stroke-width="0.7" stroke-miterlimit="10" stroke-linecap="round"/>
<path d="M11.75 19.4V17.27" stroke="black" stroke-width="0.7" stroke-miterlimit="10" stroke-linecap="round"/>
<path d="M15.23 17.6C14.96 17.93 14.33 18.69 14.07 18.97C13.81 19.25 13.31 19.49 12.66 18.9C12.01 18.31 11.86 18.13 11.86 18.13" stroke="black" stroke-width="0.7" stroke-miterlimit="10" stroke-linecap="round"/>
<path d="M4.67 12.22C4.67 12.22 5.57 13.65 7.13 13.68C8.69 13.71 9.66 12.22 9.66 12.22" stroke="black" stroke-width="0.7" stroke-miterlimit="10" stroke-linecap="round"/>
<path d="M16.19 13.09L17.87 14.65" stroke="black" stroke-width="0.7" stroke-miterlimit="10" stroke-linecap="round"/>
<path d="M17.08 12.15V4.07002C17.08 3.96002 17.21 3.89002 17.3 3.96002L19.05 5.35002C19.19 5.46002 19.19 5.67002 19.06 5.78002L17.33 7.25002" stroke="black" stroke-width="0.7" stroke-miterlimit="10" stroke-linecap="round"/>
<path d="M5.63 6.98999V7.57999" stroke="black" stroke-width="0.7" stroke-miterlimit="10" stroke-linecap="round"/>
<path d="M8.70001 6.98999V7.57999" stroke="black" stroke-width="0.7" stroke-miterlimit="10" stroke-linecap="round"/>
<path d="M8.04001 9.10999C7.90001 9.45999 7.56 9.70999 7.16 9.70999C6.79 9.70999 6.47001 9.49999 6.31001 9.18999" stroke="black" stroke-width="0.7" stroke-miterlimit="10" stroke-linecap="round"/>
</svg>
