<svg width="17" height="17" viewBox="0 0 17 17" fill="none" xmlns="http://www.w3.org/2000/svg">
<path d="M10.5 9.89781C11.48 9.89781 12.46 9.89781 13.45 9.89781C13.78 9.89781 13.94 10.0678 13.94 10.3978C13.94 10.5778 13.94 10.7578 13.94 10.9478C13.94 11.0378 13.93 11.1078 14.12 10.9378C14.9 10.2678 15.68 9.60781 16.46 8.94781C16.61 8.82781 16.6 8.59781 16.46 8.47781C15.75 7.86781 15.05 7.2678 14.35 6.6678L14.06 6.4178C14.01 6.3678 13.94 6.34781 13.94 6.43781C13.94 6.62781 13.94 6.83781 13.94 7.00781C13.94 7.35781 13.78 7.51781 13.42 7.51781C12.45 7.51781 11.49 7.51781 10.52 7.51781C10.42 7.51781 10.31 7.5678 10.31 7.7078C10.31 8.3778 10.31 9.03781 10.31 9.71781C10.32 9.81781 10.33 9.89781 10.5 9.89781Z" stroke="black" stroke-width="0.7" stroke-miterlimit="10" stroke-linecap="round"/>
<path d="M1 5.99781V2.65781C1 2.21781 1.32998 1.84781 1.75998 1.79781L8.06998 1.00781C8.58998 0.937806 9.04999 1.34781 9.04999 1.86781V15.5678C9.04999 16.0878 8.6 16.4878 8.09 16.4278L1.78 15.7678C1.34 15.7178 1 15.3478 1 14.9078V7.34781" stroke="black" stroke-width="0.7" stroke-miterlimit="10" stroke-linecap="round"/>
<path d="M12.8 9.97781V14.6278C12.8 15.0678 12.42 15.4178 11.97 15.3778L9.31998 15.0978" stroke="black" stroke-width="0.7" stroke-miterlimit="10" stroke-linecap="round"/>
<path d="M11.33 2.14781L11.96 2.06781C12.41 2.00781 12.8 2.35781 12.8 2.80781V7.45781" stroke="black" stroke-width="0.7" stroke-miterlimit="10" stroke-linecap="round"/>
<path d="M9.31998 2.3978L10.32 2.2778" stroke="black" stroke-width="0.7" stroke-miterlimit="10" stroke-linecap="round"/>
<path d="M7.06998 7.72781C7.31998 7.72781 7.51999 7.92781 7.51999 8.17781V9.20781C7.51999 9.45781 7.31998 9.65781 7.06998 9.65781" stroke="black" stroke-width="0.7" stroke-miterlimit="10" stroke-linecap="round"/>
</svg>
