<svg width="17" height="18" viewBox="0 0 17 18" fill="none" xmlns="http://www.w3.org/2000/svg">
<path d="M15.04 13.61L14.16 12.23C14.13 12.18 14.12 12.13 14.13 12.08L14.37 11.13C14.39 11.07 14.43 11.02 14.49 10.99L16.07 10.39C16.15 10.36 16.2 10.28 16.2 10.2V8.1C16.2 8.01 16.14 7.93 16.05 7.9L14.49 7.41C14.43 7.39 14.37 7.34 14.35 7.27L13.97 6.09C13.95 6.04 13.96 5.98 13.98 5.93L14.75 4.41C14.79 4.33 14.77 4.23 14.71 4.16L13.27 2.79C13.2 2.73 13.1 2.71 13.03 2.76L11.81 3.43C11.76 3.46 11.7 3.46 11.64 3.44L10.46 3.01C10.4 2.99 10.35 2.94 10.33 2.89L9.7 1.18C9.67 1.1 9.59 1.05 9.51 1.04L7.73 1C7.63 1 7.55 1.06 7.52 1.15L7.01 2.94C6.99 3 6.95 3.05 6.9 3.07L5.77 3.6C5.7 3.63 5.63 3.63 5.57 3.58L4.28 2.72C4.2 2.67 4.09 2.68 4.02 2.74L2.51 4.15C2.44 4.21 2.42 4.31 2.46 4.39L3.16 5.84C3.18 5.89 3.19 5.94 3.17 6L2.79 7.15C2.77 7.21 2.72 7.26 2.66 7.28L1.14 7.82C1.06 7.85 1 7.93 1 8.02V10.19C1 10.28 1.06 10.36 1.15 10.39L2.82 10.88C2.89 10.9 2.94 10.95 2.96 11.02L3.28 12.03C3.3 12.08 3.29 12.14 3.27 12.19L2.52 13.67C2.48 13.75 2.49 13.84 2.55 13.9L3.99 15.54C4.05 15.61 4.16 15.63 4.25 15.58L5.43 14.92C5.48 14.89 5.55 14.89 5.61 14.91L6.68 15.32C6.73 15.34 6.78 15.38 6.8 15.44L7.48 17.16C7.51 17.24 7.59 17.29 7.67 17.29H9.56C9.65 17.29 9.73 17.23 9.76 17.14L10.29 15.41C10.31 15.35 10.35 15.31 10.4 15.28L11.47 14.79C11.54 14.76 11.61 14.77 11.67 14.81L13.1 15.75L13.7006 15.1646" stroke="black" stroke-width="0.7" stroke-miterlimit="10" stroke-linecap="round"/>
<path d="M14.54 14.67C14.7278 14.67 14.88 14.5178 14.88 14.33C14.88 14.1422 14.7278 13.99 14.54 13.99C14.3522 13.99 14.2 14.1422 14.2 14.33C14.2 14.5178 14.3522 14.67 14.54 14.67Z" fill="black"/>
<path d="M11.05 8.56999C11.09 8.74999 11.11 8.93999 11.11 9.13999C11.11 10.53 9.98001 11.66 8.59001 11.66C7.20001 11.66 6.07001 10.53 6.07001 9.13999C6.07001 7.74999 7.20001 6.62 8.59001 6.62C9.11001 6.62 9.60001 6.77999 10 7.04999" stroke="black" stroke-width="0.7" stroke-miterlimit="10" stroke-linecap="round"/>
</svg>
