<svg width="20" height="24" viewBox="0 0 20 24" fill="none" xmlns="http://www.w3.org/2000/svg">
<path d="M12.5216 19.74C11.8216 19.74 4.39162 19.74 2.37162 19.74C0.721625 19.74 0.851626 18.56 1.27163 18.17C2.92163 16.62 3.72162 14.77 3.70162 12.93V9.95003C3.70162 6.57003 6.44163 3.84003 9.81163 3.84003C13.1916 3.84003 15.9216 6.58003 15.9216 9.95003C15.9216 11.66 15.9216 12.62 15.9216 13.47C15.9216 14.32 16.5316 16.56 18.4816 18.16C18.8016 18.42 19.2116 19.74 17.1716 19.74C15.1016 19.74 12.5216 19.74 12.5216 19.74Z" stroke="black" stroke-width="0.75" stroke-miterlimit="10" stroke-linecap="round"/>
<path d="M8.48163 3.98V2.34C8.48163 1.6 9.08163 1 9.82163 1C10.5616 1 11.1616 1.6 11.1616 2.34V3.98" stroke="black" stroke-width="0.75" stroke-miterlimit="10" stroke-linecap="round"/>
<path d="M12.7716 19.74C12.7716 21.34 11.4816 22.63 9.88162 22.63C8.28162 22.63 6.99162 21.34 6.99162 19.74" stroke="black" stroke-width="0.75" stroke-miterlimit="10" stroke-linecap="round"/>
<path d="M11.7216 5.78003C11.7216 5.78003 13.2316 6.55003 13.9716 8.02003" stroke="black" stroke-width="0.75" stroke-miterlimit="10" stroke-linecap="round"/>
<path d="M14.3116 9.06997C14.4442 9.06997 14.5516 8.96251 14.5516 8.82997C14.5516 8.69742 14.4442 8.58997 14.3116 8.58997C14.1791 8.58997 14.0716 8.69742 14.0716 8.82997C14.0716 8.96251 14.1791 9.06997 14.3116 9.06997Z" fill="black"/>
</svg>
