<svg width="18" height="17" viewBox="0 0 18 17" fill="none" xmlns="http://www.w3.org/2000/svg">
<path d="M3.41269 13.24C3.41269 13.24 3.41269 3.44 3.41269 2.72C3.41269 2 3.6827 1.01 5.5027 1.01C7.1527 1.01 15.3327 1.01 15.7327 1.01M14.5027 6.36V6.21M12.2927 15.88C12.2927 15.88 5.05269 16.05 2.88269 15.88C0.942689 15.73 0.932698 13.46 1.0327 13.46C1.1327 13.46 10.3527 13.46 10.3527 13.46L10.3427 13.87C10.3427 14.98 11.2727 15.87 12.4227 15.87C13.5727 15.87 14.5027 14.97 14.5027 13.87V11.27V11.22V7.14M5.05269 11.11H12.9027M14.5027 5.2V2.11C14.5027 1.49 15.0027 1 15.6127 1C16.2327 1 16.7227 1.5 16.7227 2.11V3.56H14.4927L14.5027 5.2Z" stroke="black" stroke-width="0.7" stroke-miterlimit="10" stroke-linecap="round"/>
<path d="M5.3327 9.84H10.1927" stroke="black" stroke-width="0.7" stroke-miterlimit="10" stroke-linecap="round"/>
<path d="M11.4127 9.79001H12.4327" stroke="black" stroke-width="0.7" stroke-miterlimit="10" stroke-linecap="round"/>
<path d="M8.78267 8.25C8.83267 8.28 8.88266 8.28 8.93266 8.25C9.21266 8.05 10.2227 7.29 10.9827 5.98C11.6627 4.8 11.8127 3.73 11.8427 3.31C11.8527 3.2 11.7827 3.09 11.6727 3.06C11.4227 2.98 10.9127 2.88 10.4127 2.68C9.86266 2.46 9.34267 2 8.90267 2C8.54267 2 8.02267 2.42 7.48267 2.62C6.91267 2.83 6.34266 2.95 6.05266 3.04C5.94266 3.08 5.87266 3.19 5.88266 3.31C5.96266 3.81 6.22267 5.15 6.79267 6.14C7.42267 7.22 8.49267 8.04 8.78267 8.25Z" stroke="black" stroke-width="0.7" stroke-miterlimit="10" stroke-linecap="round"/>
<path d="M7.81268 5.03999L8.89268 5.84999L10.2427 4.04999" stroke="black" stroke-width="0.7" stroke-miterlimit="10" stroke-linecap="round"/>
</svg>
