<svg width="18" height="19" viewBox="0 0 18 19" fill="none" xmlns="http://www.w3.org/2000/svg">
<path d="M4.57 11.1C5.05 10.86 5.18 10.4 5.19 9.97998" stroke="black" stroke-width="0.7" stroke-miterlimit="10" stroke-linecap="round"/>
<path d="M3.74001 12.46C5.25327 12.46 6.48 11.2332 6.48 9.71998C6.48 8.20672 5.25327 6.97998 3.74001 6.97998C2.22675 6.97998 1 8.20672 1 9.71998C1 11.2332 2.22675 12.46 3.74001 12.46Z" stroke="black" stroke-width="0.7" stroke-miterlimit="10" stroke-linecap="round"/>
<path d="M14.32 6.48C15.8333 6.48 17.06 5.25326 17.06 3.74C17.06 2.22674 15.8333 1 14.32 1C12.8067 1 11.58 2.22674 11.58 3.74C11.58 5.25326 12.8067 6.48 14.32 6.48Z" stroke="black" stroke-width="0.7" stroke-miterlimit="10" stroke-linecap="round"/>
<path d="M14.32 18.44C15.8333 18.44 17.06 17.2133 17.06 15.7C17.06 14.1868 15.8333 12.96 14.32 12.96C12.8067 12.96 11.58 14.1868 11.58 15.7C11.58 17.2133 12.8067 18.44 14.32 18.44Z" stroke="black" stroke-width="0.7" stroke-miterlimit="10" stroke-linecap="round"/>
<path d="M6.13 11.05L11.91 14.26" stroke="black" stroke-width="0.7" stroke-miterlimit="10" stroke-linecap="round"/>
<path d="M6.18 8.47001L12.23 5.51001" stroke="black" stroke-width="0.7" stroke-miterlimit="10" stroke-linecap="round"/>
</svg>
