<svg width="17" height="19" viewBox="0 0 17 19" fill="none" xmlns="http://www.w3.org/2000/svg">
<path d="M10.6654 10.0053C10.8531 10.0053 11.0054 9.85312 11.0054 9.66535C11.0054 9.47757 10.8531 9.32535 10.6654 9.32535C10.4776 9.32535 10.3254 9.47757 10.3254 9.66535C10.3254 9.85312 10.4776 10.0053 10.6654 10.0053Z" fill="black"/>
<path d="M8.20536 6.04536L11.6354 1.95536C12.5854 0.825362 14.2654 0.675362 15.3954 1.62536C16.5254 2.57536 16.6754 4.25536 15.7254 5.38536L11.5054 10.4154C10.5554 11.5454 8.87536 11.6954 7.74536 10.7454C7.34536 10.4054 7.06536 9.97536 6.91536 9.50536" stroke="black" stroke-width="0.7" stroke-miterlimit="10" stroke-linecap="round"/>
<path d="M9.25536 12.5254L5.71536 16.7554C4.76536 17.8854 3.08536 18.0354 1.95536 17.0854C0.825362 16.1354 0.675362 14.4554 1.62536 13.3254L5.84536 8.29536C6.79536 7.16536 8.47536 7.01536 9.60536 7.96536C9.90536 8.21536 10.1354 8.52536 10.2954 8.85536" stroke="black" stroke-width="0.7" stroke-miterlimit="10" stroke-linecap="round"/>
</svg>
