<svg width="19" height="19" viewBox="0 0 19 19" fill="none" xmlns="http://www.w3.org/2000/svg">
<path d="M14.6959 11.54C14.9059 11.25 15.2459 10.94 15.7659 10.46L16.2459 10.02C17.6859 8.71 18.4159 8.05 18.2059 7.43C17.9959 6.81 17.0259 6.72 15.0759 6.55L14.8659 6.53C13.6759 6.42 13.0859 6.37 12.6259 6.03C12.1759 5.69 11.9459 5.14 11.5059 4.03L11.4659 3.94C10.6759 1.98 10.2859 1 9.60587 1C8.92587 1 8.53587 1.98 7.74587 3.94L7.72587 4.04C7.28587 5.15 7.05587 5.7 6.60587 6.04C6.15587 6.38 5.55587 6.43 4.36587 6.54L4.15587 6.56C2.21587 6.73 1.23587 6.82 1.03587 7.44C0.825873 8.06 1.54587 8.71 2.98587 10.03L3.46587 10.47C4.19587 11.14 4.56587 11.47 4.73587 11.9C4.76587 11.98 4.79587 12.06 4.81587 12.15C4.92587 12.61 4.81587 13.09 4.60587 14.05L4.53587 14.35C4.14587 16.12 3.94587 17.01 4.28587 17.4C4.41587 17.54 4.58587 17.65 4.76587 17.7C5.26587 17.84 5.96587 17.26 7.37587 16.11C8.30587 15.36 8.76587 14.98 9.29587 14.9C9.50587 14.87 9.71587 14.87 9.92587 14.9C10.4559 14.98 10.9159 15.36 11.8459 16.11C13.2559 17.26 13.9559 17.83 14.4559 17.7C14.6459 17.65 14.8059 17.55 14.9359 17.4C15.2259 17.07 15.1259 16.39 14.8559 15.1" stroke="black" stroke-width="0.7" stroke-miterlimit="10" stroke-linecap="round"/>
<path d="M14.5559 14.47C14.7657 14.47 14.9359 14.2999 14.9359 14.09C14.9359 13.8801 14.7657 13.71 14.5559 13.71C14.346 13.71 14.1759 13.8801 14.1759 14.09C14.1759 14.2999 14.346 14.47 14.5559 14.47Z" fill="black"/>
</svg>
