<svg width="39" height="40" viewBox="0 0 39 40" fill="none" xmlns="http://www.w3.org/2000/svg">
<path d="M32 0.5H12.5C10 3 10.5 4 10.5 5.5V15.5C12.6667 15.5 17.1 15.7 17.5 16.5C17.9 17.3 17.6667 19.5 17.5 20.5V29.5V38.5H31V26.5C30.8334 19.3333 30.6 4.8 31 4C31.4 3.2 31.8334 1.33333 32 0.5Z" fill="#F7FFE6"/>
<path d="M34.1794 0.633458C33.3418 0.637265 32.5399 0.972651 31.949 1.56624C31.3581 2.15983 31.0264 2.96329 31.0264 3.80084V20.2713L31.6454 16.4704H37.4043V3.80084C37.4044 3.38001 37.3206 2.96338 37.1578 2.57529C36.9951 2.1872 36.7566 1.83544 36.4564 1.54056C36.1561 1.24567 35.8001 1.01358 35.4092 0.857829C35.0182 0.702082 34.6001 0.625807 34.1794 0.633458Z" fill="#57A4FF"/>
<path d="M20.9483 14.57C22.0873 14.57 23.2008 14.2322 24.1478 13.5994C25.0948 12.9666 25.833 12.0672 26.2689 11.0149C26.7047 9.96261 26.8188 8.80468 26.5966 7.68757C26.3744 6.57046 25.8259 5.54432 25.0205 4.73893C24.2151 3.93353 23.189 3.38505 22.0718 3.16284C20.9547 2.94064 19.7968 3.05468 18.7445 3.49056C17.6922 3.92643 16.7928 4.66456 16.16 5.61161C15.5272 6.55865 15.1895 7.67207 15.1895 8.81107C15.1895 10.3384 15.7962 11.8032 16.8762 12.8832C17.9562 13.9632 19.421 14.57 20.9483 14.57Z" fill="#57A4FF"/>
<path d="M0.605225 22.8052V37.0729C0.605146 37.2845 0.647496 37.4941 0.729771 37.6891C0.812047 37.8841 0.932578 38.0606 1.08424 38.2083C1.23591 38.3559 1.41563 38.4716 1.61278 38.5486C1.80994 38.6256 2.02053 38.6623 2.23211 38.6566H16.183H16.471C16.8345 38.5894 17.163 38.3971 17.3996 38.1131C17.6363 37.8291 17.7661 37.4713 17.7667 37.1017V22.8052H0.605225ZM5.67304 36.1227H2.50566V33.5887H5.67304V36.1227ZM5.67304 31.6739H2.50566V29.14H5.67304V31.6739ZM5.67304 27.2396H2.50566V24.7057H5.67304V27.2396ZM10.7409 36.1227H7.57348V33.5887H10.7409V36.1227ZM10.7409 31.6739H7.57348V29.14H10.7409V31.6739ZM10.7409 27.2396H7.57348V24.7057H10.7409V27.2396ZM12.6413 36.1227V29.14H15.8087V36.1227H12.6413ZM15.8087 24.7057V27.2396H12.6413V24.7057H15.8087Z" fill="#57A4FF"/>
<path d="M15.8085 20.9048V17.7374H2.50549V20.9048H15.8085Z" fill="#57A4FF"/>
<path d="M20.9485 2.53394C19.6956 2.53394 18.4709 2.90546 17.4291 3.60154C16.3874 4.29761 15.5754 5.28697 15.096 6.4445C14.6165 7.60203 14.4911 8.87574 14.7355 10.1046C14.9799 11.3334 15.5833 12.4621 16.4692 13.3481C17.3551 14.234 18.4839 14.8373 19.7127 15.0818C20.9415 15.3262 22.2152 15.2007 23.3728 14.7213C24.5303 14.2418 25.5196 13.4299 26.2157 12.3881C26.9118 11.3464 27.2833 10.1216 27.2833 8.86871C27.2833 7.18862 26.6159 5.57735 25.4279 4.38935C24.2399 3.20135 22.6286 2.53394 20.9485 2.53394ZM20.9485 13.9365C19.9462 13.9365 18.9664 13.6393 18.133 13.0824C17.2996 12.5256 16.6501 11.7341 16.2665 10.8081C15.8829 9.88206 15.7826 8.86309 15.9781 7.88003C16.1736 6.89697 16.6563 5.99397 17.3651 5.28522C18.0738 4.57647 18.9768 4.09381 19.9599 3.89827C20.9429 3.70272 21.9619 3.80308 22.8879 4.18666C23.8139 4.57023 24.6054 5.21978 25.1623 6.05318C25.7191 6.88658 26.0164 7.86639 26.0164 8.86871C26.0126 10.2116 25.4774 11.4984 24.5278 12.448C23.5783 13.3976 22.2914 13.9327 20.9485 13.9365Z" fill="#004FAC"/>
<path d="M17.0751 37.0728C17.0714 37.3237 16.9701 37.5632 16.7927 37.7406C16.6153 37.918 16.3757 38.0193 16.1249 38.023H2.23157C1.97956 38.023 1.73786 37.9229 1.55966 37.7447C1.38146 37.5665 1.28135 37.3248 1.28135 37.0728V23.4387H17.1183L17.0751 37.0728ZM17.0751 22.1717H1.23816V17.4206C1.23803 17.2921 1.26396 17.1649 1.31439 17.0467C1.36482 16.9285 1.4387 16.8218 1.53157 16.733C1.62443 16.6442 1.73434 16.5751 1.85466 16.53C1.97498 16.4848 2.1032 16.4646 2.23157 16.4704H16.1681C16.4189 16.4741 16.6585 16.5754 16.8359 16.7528C17.0133 16.9302 17.1146 17.1698 17.1183 17.4206L17.0751 22.1717ZM30.3781 32.1202V37.9942H18.1405C18.2717 37.7047 18.3404 37.3907 18.3421 37.0728V17.4206C18.3421 16.8326 18.1085 16.2687 17.6927 15.8529C17.2769 15.4371 16.7129 15.2035 16.1249 15.2035H11.3738V3.80086C11.3738 3.12883 11.6408 2.48432 12.116 2.00912C12.5912 1.53392 13.2357 1.26695 13.9077 1.26695H31.3571C30.725 1.95921 30.3757 2.86344 30.3781 3.80086V26.4765H31.6451V17.1039H37.404C37.572 17.1039 37.7331 17.0372 37.8519 16.9184C37.9707 16.7996 38.0374 16.6384 38.0374 16.4704V3.80086C38.0336 2.79149 37.63 1.82476 36.9149 1.11237C36.1998 0.399979 35.2316 -7.18669e-06 34.2222 0H13.9077C13.4086 0 12.9143 0.0983119 12.4532 0.289323C11.992 0.480335 11.573 0.760305 11.2201 1.11325C10.8672 1.46619 10.5872 1.88519 10.3962 2.34634C10.2052 2.80748 10.1068 3.30173 10.1068 3.80086V15.2035H2.23157C1.64335 15.2072 1.08008 15.4415 0.662792 15.8561C0.245509 16.2707 0.00752959 16.8325 0 17.4206V37.0728C0.00752959 37.661 0.245509 38.2228 0.662792 38.6373C1.08008 39.0519 1.64335 39.2863 2.23157 39.29H31.026C31.1092 39.29 31.1916 39.2736 31.2684 39.2418C31.3453 39.2099 31.4151 39.1633 31.4739 39.1045C31.5328 39.0456 31.5794 38.9758 31.6113 38.8989C31.6431 38.8221 31.6595 38.7397 31.6595 38.6565V32.1202H30.3781ZM36.7849 15.8369H31.6451V3.80086C31.6934 3.15996 31.982 2.56097 32.4533 2.1239C32.9245 1.68683 33.5435 1.44396 34.1862 1.44396C34.8289 1.44396 35.4479 1.68683 35.9191 2.1239C36.3904 2.56097 36.679 3.15996 36.7273 3.80086L36.7849 15.8369Z" fill="#004FAC"/>
<path d="M10.741 24.0721H7.57359C7.4904 24.0721 7.40803 24.0885 7.33117 24.1203C7.25431 24.1522 7.18448 24.1988 7.12565 24.2577C7.06683 24.3165 7.02017 24.3863 6.98833 24.4632C6.9565 24.54 6.94011 24.6224 6.94011 24.7056V27.2395C6.93814 27.3232 6.95318 27.4065 6.98432 27.4842C7.01545 27.562 7.06204 27.6326 7.12127 27.6918C7.18049 27.751 7.25111 27.7976 7.32886 27.8288C7.4066 27.8599 7.48986 27.8749 7.57359 27.873H10.741C10.909 27.873 11.0701 27.8062 11.1889 27.6874C11.3077 27.5686 11.3745 27.4075 11.3745 27.2395V24.7056C11.3745 24.6224 11.3581 24.54 11.3262 24.4632C11.2944 24.3863 11.2477 24.3165 11.1889 24.2577C11.1301 24.1988 11.0603 24.1522 10.9834 24.1203C10.9065 24.0885 10.8242 24.0721 10.741 24.0721ZM10.1075 26.606H8.20707V25.3391H10.1075V26.606Z" fill="#004FAC"/>
<path d="M5.67311 24.0721H2.50572C2.42253 24.0721 2.34016 24.0885 2.2633 24.1203C2.18644 24.1522 2.11661 24.1988 2.05778 24.2577C1.99896 24.3165 1.9523 24.3863 1.92046 24.4632C1.88863 24.54 1.87224 24.6224 1.87224 24.7056V27.2395C1.87027 27.3232 1.88531 27.4065 1.91645 27.4842C1.94758 27.562 1.99417 27.6326 2.05339 27.6918C2.11262 27.751 2.18324 27.7976 2.26099 27.8288C2.33873 27.8599 2.42199 27.8749 2.50572 27.873H5.67311C5.84112 27.873 6.00224 27.8062 6.12104 27.6874C6.23984 27.5686 6.30658 27.4075 6.30658 27.2395V24.7056C6.30658 24.6224 6.2902 24.54 6.25836 24.4632C6.22653 24.3863 6.17987 24.3165 6.12104 24.2577C6.06222 24.1988 5.99239 24.1522 5.91553 24.1203C5.83867 24.0885 5.7563 24.0721 5.67311 24.0721ZM5.11162 26.606H3.1392V25.3391H5.11162V26.606Z" fill="#004FAC"/>
<path d="M12.6413 27.9162H15.8087C15.9767 27.9162 16.1378 27.8494 16.2566 27.7306C16.3754 27.6118 16.4422 27.4507 16.4422 27.2827V24.7056C16.4422 24.6224 16.4258 24.54 16.3939 24.4632C16.3621 24.3863 16.3154 24.3165 16.2566 24.2577C16.1978 24.1988 16.128 24.1522 16.0511 24.1203C15.9743 24.0885 15.8919 24.0721 15.8087 24.0721H12.6413C12.5581 24.0721 12.4757 24.0885 12.3989 24.1203C12.322 24.1522 12.2522 24.1988 12.1934 24.2577C12.1345 24.3165 12.0879 24.3863 12.056 24.4632C12.0242 24.54 12.0078 24.6224 12.0078 24.7056V27.2395C12.0019 27.3263 12.0139 27.4133 12.0431 27.4952C12.0722 27.5771 12.1179 27.6522 12.1774 27.7156C12.2368 27.7791 12.3087 27.8297 12.3885 27.8642C12.4683 27.8987 12.5543 27.9164 12.6413 27.9162ZM13.2748 25.3823H15.1896V26.6492H13.2748V25.3823Z" fill="#004FAC"/>
<path d="M10.741 28.5065H7.57359C7.40558 28.5065 7.24445 28.5732 7.12565 28.692C7.00685 28.8108 6.94011 28.9719 6.94011 29.1399V31.6739C6.93814 31.7576 6.95318 31.8408 6.98432 31.9186C7.01545 31.9963 7.06204 32.067 7.12127 32.1262C7.18049 32.1854 7.25111 32.232 7.32886 32.2631C7.4066 32.2943 7.48986 32.3093 7.57359 32.3073H10.741C10.909 32.3073 11.0701 32.2406 11.1889 32.1218C11.3077 32.003 11.3745 31.8419 11.3745 31.6739V29.1399C11.3745 28.9719 11.3077 28.8108 11.1889 28.692C11.0701 28.5732 10.909 28.5065 10.741 28.5065ZM10.1075 31.0404H8.20707V29.7734H10.1075V31.0404Z" fill="#004FAC"/>
<path d="M5.67311 28.5065H2.50572C2.33771 28.5065 2.17658 28.5732 2.05778 28.692C1.93898 28.8108 1.87224 28.9719 1.87224 29.1399V31.6739C1.87027 31.7576 1.88531 31.8408 1.91645 31.9186C1.94758 31.9963 1.99417 32.067 2.05339 32.1262C2.11262 32.1854 2.18324 32.232 2.26099 32.2631C2.33873 32.2943 2.42199 32.3093 2.50572 32.3073H5.67311C5.84112 32.3073 6.00224 32.2406 6.12104 32.1218C6.23984 32.003 6.30658 31.8419 6.30658 31.6739V29.1399C6.30658 28.9719 6.23984 28.8108 6.12104 28.692C6.00224 28.5732 5.84112 28.5065 5.67311 28.5065ZM5.11162 31.0404H3.1392V29.7734H5.11162V31.0404Z" fill="#004FAC"/>
<path d="M16.4422 36.1226V29.1399C16.4422 28.9719 16.3754 28.8108 16.2566 28.692C16.1378 28.5732 15.9767 28.5065 15.8087 28.5065H12.6413C12.4733 28.5065 12.3122 28.5732 12.1934 28.692C12.0746 28.8108 12.0078 28.9719 12.0078 29.1399V36.1226C12.0078 36.2906 12.0746 36.4517 12.1934 36.5705C12.3122 36.6893 12.4733 36.7561 12.6413 36.7561H15.8087C15.9767 36.7561 16.1378 36.6893 16.2566 36.5705C16.3754 36.4517 16.4422 36.2906 16.4422 36.1226ZM15.1896 35.4891H13.2748V29.7302H15.1896V35.4891Z" fill="#004FAC"/>
<path d="M10.741 32.9552H7.57359C7.48986 32.9533 7.4066 32.9683 7.32886 32.9995C7.25111 33.0306 7.18049 33.0772 7.12127 33.1364C7.06204 33.1956 7.01545 33.2662 6.98432 33.344C6.95318 33.4217 6.93814 33.505 6.94011 33.5887V36.1226C6.94011 36.2906 7.00685 36.4518 7.12565 36.5706C7.24445 36.6894 7.40558 36.7561 7.57359 36.7561H10.741C10.909 36.7561 11.0701 36.6894 11.1889 36.5706C11.3077 36.4518 11.3745 36.2906 11.3745 36.1226V33.5887C11.3745 33.4207 11.3077 33.2596 11.1889 33.1408C11.0701 33.022 10.909 32.9552 10.741 32.9552ZM10.1075 35.4892H8.20707V34.2222H10.1075V35.4892Z" fill="#004FAC"/>
<path d="M5.67311 32.9552H2.50572C2.42199 32.9533 2.33873 32.9683 2.26099 32.9995C2.18324 33.0306 2.11262 33.0772 2.05339 33.1364C1.99417 33.1956 1.94758 33.2662 1.91645 33.344C1.88531 33.4217 1.87027 33.505 1.87224 33.5887V36.1226C1.87224 36.2906 1.93898 36.4518 2.05778 36.5706C2.17658 36.6894 2.33771 36.7561 2.50572 36.7561H5.67311C5.84112 36.7561 6.00224 36.6894 6.12104 36.5706C6.23984 36.4518 6.30658 36.2906 6.30658 36.1226V33.5887C6.30658 33.4207 6.23984 33.2596 6.12104 33.1408C6.00224 33.022 5.84112 32.9552 5.67311 32.9552ZM5.11162 35.4892H3.1392V34.2222H5.11162V35.4892Z" fill="#004FAC"/>
<path d="M2.50555 21.5382H15.8086C15.9766 21.5382 16.1377 21.4715 16.2565 21.3527C16.3753 21.2339 16.4421 21.0728 16.4421 20.9047V17.7374C16.4421 17.5694 16.3753 17.4082 16.2565 17.2894C16.1377 17.1706 15.9766 17.1039 15.8086 17.1039H2.50555C2.33754 17.1039 2.17641 17.1706 2.05761 17.2894C1.93881 17.4082 1.87207 17.5694 1.87207 17.7374V20.9047C1.87207 21.0728 1.93881 21.2339 2.05761 21.3527C2.17641 21.4715 2.33754 21.5382 2.50555 21.5382ZM3.13903 18.3708H15.1895V20.2713H3.13903V18.3708Z" fill="#004FAC"/>
<path d="M21.0631 12.3384L20.1849 11.7625V8.45111H19.3499V7.54409H20.1849V6.57947C20.1849 6.29153 20.1849 6.14756 19.9833 6.14756C19.8301 6.18349 19.6932 6.26964 19.5946 6.39231L19.1051 5.67245C19.2108 5.51508 19.349 5.38223 19.5105 5.28288C19.6719 5.18353 19.8528 5.11999 20.0409 5.09656C20.8184 5.09656 21.2503 5.62926 21.2503 6.68025V7.54409H21.9414V8.40792H21.1495V11.1866C22.3733 10.841 22.9636 10.3659 22.9636 9.84764C22.9636 9.60289 22.8628 9.50211 22.6612 9.50211C22.4722 9.57547 22.3041 9.69412 22.1717 9.84764L21.5958 9.17097C21.6795 8.94536 21.8343 8.7531 22.0369 8.62324C22.2395 8.49338 22.4789 8.43296 22.7188 8.45111C22.8837 8.45415 23.0463 8.4901 23.1971 8.55685C23.348 8.6236 23.4839 8.71981 23.597 8.83983C23.8254 9.10224 23.944 9.44252 23.9282 9.79005C23.9858 10.9418 23.0211 11.7625 21.0631 12.3384Z" fill="white"/>
<path d="M31.0118 27.1675C31.3616 27.1675 31.6453 26.8839 31.6453 26.5341C31.6453 26.1842 31.3616 25.9006 31.0118 25.9006C30.6619 25.9006 30.3783 26.1842 30.3783 26.5341C30.3783 26.8839 30.6619 27.1675 31.0118 27.1675Z" fill="#004FAC"/>
<path d="M31.0118 29.0104C31.3616 29.0104 31.6453 28.7268 31.6453 28.3769C31.6453 28.0271 31.3616 27.7435 31.0118 27.7435C30.6619 27.7435 30.3783 28.0271 30.3783 28.3769C30.3783 28.7268 30.6619 29.0104 31.0118 29.0104Z" fill="#004FAC"/>
<path d="M31.0118 32.7536C31.3616 32.7536 31.6453 32.47 31.6453 32.1202C31.6453 31.7703 31.3616 31.4867 31.0118 31.4867C30.6619 31.4867 30.3783 31.7703 30.3783 32.1202C30.3783 32.47 30.6619 32.7536 31.0118 32.7536Z" fill="#004FAC"/>
</svg>
