<svg width="34" height="47" viewBox="0 0 34 47" fill="none" xmlns="http://www.w3.org/2000/svg">
<path d="M16.2177 1.03835C9.7025 1.44967 4.66699 6.93419 4.66699 13.4624C4.66699 15.3425 4.66699 27.8125 4.66699 29.4334C4.66699 29.9769 5.10757 30.4175 5.65108 30.4175H10.2225H13.351H20.6782H28.6648C29.05 30.4175 29.3622 30.1053 29.3622 29.7201C29.3622 24.0655 29.3622 19.2312 29.3622 13.3608C29.3622 6.28852 23.3855 0.585828 16.2177 1.03835Z" fill="#3C506A"/>
<path d="M31.0955 43.7495C30.6022 41.1536 30.0174 38.0757 29.8763 37.3333C29.5098 35.4094 28.544 35.0558 27.1309 34.5132C26.9401 34.4399 25.6309 34.0132 25.6309 34.0132C25.6309 34.0132 24.1309 33.5132 22.4653 33.0271L18.2748 38.1846C17.0569 39.6836 15.2402 39.6805 14.0249 38.1773L9.84973 33.0132C9.25705 33.1679 7.83627 33.5348 5.34386 34.1822C5.49033 34.1368 2.91111 34.5743 2.3854 37.3333C2.24434 38.0757 1.65947 41.1536 1.16624 43.7495C0.950824 44.8853 1.74546 45.9455 2.83103 46.01C2.83477 46.0121 2.83684 46.0132 2.83684 46.0132H2.94252C4.11573 46.0132 28.3028 46.0132 29.4248 46.0132C29.4248 46.0132 29.4269 46.0121 29.4306 46.01C30.5167 45.9455 31.3108 44.885 31.0955 43.7495Z" fill="#3997EE"/>
<path d="M13.0751 28.9055H13.0717V28.9054C13.0769 28.9079 13.044 28.9139 13.0312 28.916C13.0494 28.9161 13.0637 28.9162 13.0752 28.9163L13.0751 28.9055Z" fill="#3997EE"/>
<path d="M21.1644 32.2513C20.8257 32.1676 20.5878 31.8637 20.5878 31.5148C20.5878 31.5148 20.5878 29.9692 20.5878 28.9055H19.9294C18.0697 29.5872 15.9753 29.6277 14.0099 28.9055H13.351V31.5745C13.351 31.8886 13.1373 32.1623 12.8326 32.2385L10.2224 32.8917L14.7632 38.2514C16.048 39.768 17.9687 39.7712 19.2563 38.2588L23.8135 32.9062L21.1644 32.2513Z" fill="#EDB87E"/>
<path d="M9.59926 18.1847C8.93532 18.1446 8.37573 18.6749 8.37573 19.3401V20.9613C8.37573 25.9119 12.4789 29.9443 17.424 29.7135C22.0048 29.4998 25.6533 25.7187 25.6533 21.0842V15.5596C25.6533 14.9937 25.2331 14.5179 24.672 14.4443C23.9329 14.3474 22.9427 13.9542 22.312 12.655C22.1469 12.3151 21.6792 12.2712 21.4555 12.5757C20.1311 14.3789 16.2968 18.5895 9.59926 18.1847Z" fill="#F4C48B"/>
<path d="M16.9935 26.8091C16.9654 26.1724 17.4256 25.6389 18.0307 25.5479C17.9709 25.539 17.9103 25.5327 17.848 25.5327H16.1365C15.4438 25.5327 14.8857 26.1095 14.9165 26.8091C14.9455 27.4682 15.5151 27.9751 16.1748 27.9751H17.8097C17.8848 27.9751 17.9585 27.9677 18.0306 27.9551C17.4696 27.8568 17.0192 27.3931 16.9935 26.8091Z" fill="#1E88D8"/>
<path d="M32.1307 39.0132C31.9401 38.4415 31.736 37.9454 31.5235 37.5132C30.5702 35.5744 29.4484 34.922 28.6307 34.5132C27.6307 34.0132 23.1307 32.5132 21.6307 32.5132C20.4307 32.5132 20.464 31.1798 20.6307 30.5132C22.464 30.5132 26.4307 30.5132 27.6307 30.5132C29.1307 30.5132 29.1307 30.0132 29.1307 29.0132C29.1307 28.0132 29.1307 22.0132 29.1307 20.5132C30.3307 19.7132 29.964 17.8465 29.6307 17.0132V16.5131C30.1307 9.51316 27.6307 1.51314 17.1307 1.01313C12.0574 0.771537 7.68783 3.90531 6.1307 7.01316C4.16493 10.9366 4.63071 15.9963 4.63071 16.5131C3.83071 18.5131 4.29738 20.0131 4.63071 20.5131C4.63071 23.0131 4.63071 28.2131 4.63071 29.0131C4.63071 30.0131 5.13071 30.5131 6.13071 30.5131C6.93071 30.5131 11.1307 30.5131 13.1307 30.5131C13.2974 30.5131 13.5307 30.7132 13.1307 31.5132C12.6307 32.5132 10.1307 32.5132 7.13074 33.5132C4.13074 34.5132 3.13074 35.5132 2.63074 37.0132C2.13074 38.5132 1.63073 41.0132 1.13073 43.0132C0.63073 45.0132 1.6307 46.0132 3.01287 46.0132C4.39504 46.0132 25.1307 46.5132 29.1307 46.0132C33.1307 45.5132 33.1307 44.5132 33.1307 43.5132M32.6307 40.5771C32.7114 40.8454 32.779 41.083 32.8358 41.296" stroke="#2D3192" stroke-width="1.3" stroke-linecap="round" stroke-linejoin="round"/>
<path d="M21.6308 12.5131C14.1308 18.5131 12.1308 18.0131 9.63081 18.0131C7.63081 19.0131 8.13081 20.5132 8.63081 22.5132C9.63081 26.0132 12.1308 29.5132 17.1308 29.5132C22.1308 29.5132 24.1308 27.0132 25.1308 24.5132C26.1308 22.0132 25.6308 16.5132 25.6308 15.5132C25.6308 14.5132 24.1308 14.5131 23.6308 14.0131C23.1308 13.5131 22.6308 12.0131 21.6308 12.5131Z" stroke="#2D3192"/>
<path d="M10.1309 32.5132C10.6309 34.0132 13.6309 39.0132 16.6309 39.0132C19.6309 39.0132 22.1309 35.1799 23.6309 33.0132" stroke="#2D3192"/>
<path d="M16.9897 27.4776H12.134C9.13389 27.4776 6.50195 25.4996 6.50195 22.4376V21.0473C6.50195 20.6726 6.80568 20.3688 7.18038 20.3688C7.55508 20.3688 7.85881 20.6726 7.85881 21.0473V22.4376C7.85881 24.7091 9.8522 26.1207 12.134 26.1207H16.9897C17.3644 26.1207 17.6682 26.4244 17.6682 26.7991C17.6682 27.1739 17.3644 27.4776 16.9897 27.4776Z" fill="#EFEFEF"/>
<path d="M26.9202 15.9893C26.5455 15.9893 26.2418 15.6856 26.2418 15.3109V13.4662C26.2418 8.30686 22.0522 4.07916 16.8948 4.16945C11.9441 4.25711 7.87862 8.30299 7.87862 13.3495V15.3109C7.87862 15.6856 7.57489 15.9893 7.20019 15.9893C6.82549 15.9893 6.52176 15.6856 6.52176 15.3109V13.3495C6.52176 7.65021 11.0926 2.9151 16.8709 2.81268C22.7907 2.71167 27.5987 7.54736 27.5987 13.4661V15.3108C27.5986 15.6856 27.2949 15.9893 26.9202 15.9893Z" fill="#EFEFEF"/>
<path d="M16.1749 27.9751H17.8098C18.4695 27.9751 19.039 27.4682 19.068 26.8091C19.0988 26.1095 18.5408 25.5327 17.8481 25.5327H16.1366C15.4439 25.5327 14.8858 26.1095 14.9166 26.8091C14.9457 27.4682 15.5152 27.9751 16.1749 27.9751Z" fill="#1E88D8"/>
<path d="M5.94766 15.7858V21.5755C3.34558 20.5175 3.3397 16.8461 5.94766 15.7858Z" fill="#FAE849"/>
<path d="M5.93909 21.5749V15.7863C5.93909 15.1265 6.44598 14.557 7.10508 14.528C7.80468 14.4971 8.38148 15.0551 8.38148 15.748V21.6132C8.38148 22.306 7.80468 22.8641 7.10508 22.8333C6.44598 22.8042 5.93909 22.2347 5.93909 21.5749Z" fill="#F8A748"/>
<path d="M28.0889 15.7858V21.5755C30.6814 20.5175 30.6872 16.8461 28.0889 15.7858Z" fill="#FAE849"/>
<path d="M25.6516 21.5749V15.7863C25.6516 15.1265 26.1589 14.557 26.8185 14.528C27.5186 14.4971 28.096 15.0551 28.096 15.748V21.6132C28.096 22.306 27.5187 22.864 26.8185 22.8333C26.1588 22.8042 25.6516 22.2347 25.6516 21.5749Z" fill="#F8A748"/>
</svg>
