<svg width="45" height="43" viewBox="0 0 45 43" fill="none" xmlns="http://www.w3.org/2000/svg">
<path d="M34.0757 0.717102C38.15 0.719903 41.7647 3.33228 43.0457 7.20042C44.3267 11.0682 42.9858 15.3218 39.7184 17.756C36.4514 20.1902 31.9919 20.2581 28.6524 17.9237C25.3126 15.5896 23.8436 11.3787 25.0066 7.47384C26.2032 3.46426 29.8911 0.716402 34.0757 0.717102Z" fill="#00EFD1"/>
<path d="M32.8054 36.4715V36.4813C32.803 39.191 30.6058 41.3864 27.8961 41.3864H27.8807C27.7676 41.3864 27.6549 41.3818 27.5436 41.3748C24.969 41.1952 22.9728 39.0527 22.9756 36.4715V33.2961H6.521V33.2531L6.69464 7.4693H24.9932L25.0065 7.47385C24.2177 10.124 24.627 12.9864 26.1264 15.3096C27.6258 17.6328 30.0656 19.1844 32.8054 19.5569V36.4715ZM13.387 16.5069C14.258 16.5069 14.9641 15.833 14.9641 15.0022C14.9641 14.1714 14.258 13.4965 13.387 13.4965C12.5156 13.4965 11.8088 14.1707 11.8088 15.0022C11.8088 15.834 12.5149 16.5069 13.387 16.5069ZM13.387 22.7395C14.258 22.7395 14.9641 22.0656 14.9641 21.2338C14.9641 20.402 14.258 19.7291 13.387 19.7291C12.5156 19.7291 11.8088 20.403 11.8088 21.2338C11.8088 22.0646 12.5149 22.7395 13.387 22.7395ZM13.387 28.9708C14.258 28.9708 14.9641 28.2979 14.9641 27.4661C14.9641 26.6343 14.258 25.9614 13.387 25.9614C12.5156 25.9614 11.8088 26.6353 11.8088 27.4661C11.8088 28.2969 12.5149 28.9708 13.387 28.9708Z" fill="#FEDB41"/>
<path d="M27.5436 41.3749L27.5429 41.3864H5.64515C2.93546 41.3864 0.73829 39.191 0.73584 36.4813V33.2962H22.9757V36.4715C22.9729 39.0527 24.9691 41.1953 27.5436 41.3749Z" fill="#00ACEA"/>
<path d="M14.9642 15.0022C14.9642 15.833 14.2581 16.5069 13.387 16.5069C12.5157 16.5069 11.8088 15.833 11.8088 15.0022C11.8088 14.1714 12.515 13.4965 13.387 13.4965C14.2591 13.4965 14.9642 14.1707 14.9642 15.0022Z" fill="#00EFD1"/>
<path d="M14.9642 21.2338C14.9642 22.0656 14.2581 22.7396 13.387 22.7396C12.5157 22.7396 11.8088 22.0656 11.8088 21.2338C11.8088 20.402 12.515 19.7291 13.387 19.7291C14.2591 19.7291 14.9642 20.403 14.9642 21.2338Z" fill="#00EFD1"/>
<path d="M14.9642 27.4661C14.9642 28.2979 14.2581 28.9708 13.387 28.9708C12.5157 28.9708 11.8088 28.2979 11.8088 27.4661C11.8088 26.6343 12.515 25.9614 13.387 25.9614C14.2591 25.9614 14.9642 26.6353 14.9642 27.4661Z" fill="#00EFD1"/>
<path d="M34.0757 0.000201396C31.861 -0.0138022 29.7037 0.702832 27.9375 2.03843C26.3726 3.24204 25.1781 4.86155 24.4909 6.71213H6.69477C6.30057 6.71213 5.98059 7.06747 5.97779 7.46167L5.80869 32.6132H0.735889C0.339938 32.6132 0 32.8999 0 33.2962V36.482C0 39.496 2.41982 41.9627 5.37738 42.0971V42.1132H27.5143V42.0926C27.6935 42.0996 27.774 42.1132 27.8808 42.1132H27.8962C31.0015 42.1052 33.5159 39.587 33.519 36.4813V20.3429C33.6983 20.3527 33.8894 20.359 34.0739 20.359C39.6957 20.3597 44.2535 15.8026 44.2542 10.1805C44.2545 4.55872 39.6974 0.000901621 34.0757 0.000201396ZM1.43397 36.4813V34.0472H22.2265V36.4708C22.2265 38.1278 22.9824 39.6038 24.1401 40.6793H5.6452C3.32691 40.674 1.44692 38.7996 1.43397 36.4813ZM27.8906 40.6793H27.8808C27.7912 40.6793 27.6802 40.6712 27.5769 40.6646C25.3766 40.5046 23.6703 38.6778 23.6605 36.4715V33.2962C23.6664 33.1131 23.5961 32.9356 23.4665 32.8061C23.3367 32.6766 23.1588 32.6069 22.9757 32.6132H7.24266L7.40686 8.1461H24.0935C23.9654 8.81722 23.8996 9.49885 23.8965 10.1819C23.8965 11.6337 24.2066 12.9857 24.7668 14.3301H17.989C17.5931 14.3301 17.272 14.6511 17.272 15.0471C17.272 15.443 17.5931 15.7641 17.989 15.7641H25.5454C27.0371 18.0582 29.3981 19.6466 32.0851 20.164V36.4806C32.0826 38.7968 30.2068 40.6744 27.8906 40.6793ZM34.0757 18.925C33.6832 18.9254 33.2911 18.8991 32.9022 18.8466H32.9011C28.5849 18.2679 25.3301 14.5419 25.3301 10.1801C25.3301 5.34993 29.2455 1.43452 34.0757 1.43452C38.9055 1.43452 42.8209 5.34993 42.8209 10.1801C42.8209 15.01 38.9055 18.9254 34.0757 18.9254V18.925Z" fill="#083863"/>
<path d="M13.387 19.0121C12.1211 19.0121 11.0918 20.0089 11.0918 21.2338C11.0918 22.4588 12.1211 23.4565 13.387 23.4565C14.6526 23.4565 15.6811 22.4595 15.6811 21.2338C15.6811 20.0082 14.6519 19.0121 13.387 19.0121ZM13.387 22.0226C12.9119 22.0226 12.5258 21.6686 12.5258 21.2338C12.5258 20.799 12.9119 20.4461 13.387 20.4461C13.8617 20.4461 14.2472 20.7994 14.2472 21.2338C14.2472 21.6683 13.8614 22.0226 13.387 22.0226Z" fill="#083863"/>
<path d="M27.5477 20.514H17.9892C17.5932 20.514 17.2722 20.8351 17.2722 21.231C17.2722 21.627 17.5932 21.948 17.9892 21.948H27.5477C27.9437 21.948 28.2647 21.627 28.2647 21.231C28.2647 20.8351 27.9437 20.514 27.5477 20.514Z" fill="#083863"/>
<path d="M13.387 12.7795C12.1211 12.7795 11.0918 13.7765 11.0918 15.0022C11.0918 16.2279 12.1211 17.2239 13.387 17.2239C14.6526 17.2239 15.6811 16.2275 15.6811 15.0022C15.6811 13.7772 14.6519 12.7795 13.387 12.7795ZM13.387 15.7899C12.9119 15.7899 12.5258 15.4367 12.5258 15.0022C12.5258 14.5677 12.9119 14.2134 13.387 14.2134C13.8617 14.2134 14.2472 14.5674 14.2472 15.0022C14.2472 15.437 13.8614 15.7899 13.387 15.7899Z" fill="#083863"/>
<path d="M13.387 25.2444C12.1211 25.2444 11.0918 26.2412 11.0918 27.4661C11.0918 28.6914 12.1211 29.6878 13.387 29.6878C14.6526 29.6878 15.6811 28.6911 15.6811 27.4661C15.6811 26.2412 14.6519 25.2444 13.387 25.2444ZM13.387 28.2538C12.9119 28.2538 12.5258 27.9006 12.5258 27.4661C12.5258 27.0317 12.9119 26.6784 13.387 26.6784C13.8617 26.6784 14.2472 27.0317 14.2472 27.4661C14.2472 27.9006 13.8614 28.2538 13.387 28.2538Z" fill="#083863"/>
<path d="M27.5477 26.7877H17.9892C17.5932 26.7877 17.2722 27.1087 17.2722 27.5046C17.2722 27.9006 17.5932 28.2216 17.9892 28.2216H27.5477C27.9437 28.2216 28.2647 27.9006 28.2647 27.5046C28.2647 27.1087 27.9437 26.7877 27.5477 26.7877Z" fill="#083863"/>
<path d="M34.2991 16.5077L32.8 15.4754L32.8539 9.73946H31.4266V8.15062H32.8539V6.42714C32.8539 5.93343 32.7462 5.69107 32.5397 5.69107C32.3961 5.69107 32.1537 5.83469 31.8395 6.11296L31.0586 4.87421C31.6331 4.20097 32.1447 3.85986 32.6205 3.85986C33.9939 3.85986 34.6851 4.78444 34.6851 6.6336C34.6851 7.35172 34.6582 7.8544 34.5953 8.15062H35.9059V9.66765H34.5953V14.5509C36.615 13.9135 37.6294 13.1146 37.6294 12.1631C37.6294 11.7592 37.4588 11.5527 37.1267 11.5527C37.001 11.5527 36.7138 11.7592 36.256 12.1631L35.3494 10.9603C35.6815 10.1434 36.3188 9.73946 37.2524 9.73946C37.8538 9.73946 38.3565 9.97285 38.7514 10.4396C39.1464 10.9064 39.3439 11.445 39.3439 12.0644C39.3439 14.0931 37.6653 15.5742 34.2991 16.5077Z" fill="#083863"/>
</svg>
