<svg width="49" height="49" viewBox="0 0 49 49" fill="none" xmlns="http://www.w3.org/2000/svg">
<path d="M47 31.0788C47 24.1031 41.4963 18.4482 34.707 18.4482C27.9177 18.4482 22.4138 24.1031 22.4138 31.0788C22.4138 38.0545 27.9176 43.7093 34.7068 43.7093C36.0468 43.7093 37.3364 43.4882 38.5439 43.0809L42.3582 47V40.9643C45.1866 38.6503 47 35.0823 47 31.0788Z" fill="#FF5D5D"/>
<path d="M35.321 18.4609C28.2322 18.4609 22.4855 24.1133 22.4855 31.0859C22.4855 38.0584 28.232 43.7108 35.3208 43.7108C36.7199 43.7108 38.0663 43.4898 39.3271 43.0827L43.3097 47V40.967C46.2629 38.654 48.1563 35.0876 48.1563 31.0859C48.1563 27.6857 46.7898 24.5995 44.5675 22.3296M39.3271 19.088C39.7384 19.2208 40.1406 19.3735 40.5324 19.5449M42.7882 20.8162C43.0462 20.9979 43.297 21.1889 43.5402 21.3885" stroke="#284268" stroke-linecap="round"/>
<path d="M30.6939 27.7501C30.4583 27.7501 30.2273 27.8443 30.0606 28.0082C29.894 28.1722 29.7982 28.3994 29.7982 28.6311C29.7982 28.8637 29.894 29.0902 30.0606 29.254C30.2273 29.4179 30.4583 29.5122 30.6939 29.5122C30.9304 29.5122 31.1606 29.4179 31.3271 29.254C31.4947 29.0902 31.5896 28.8629 31.5896 28.6311C31.5896 28.3994 31.4946 28.1721 31.3271 28.0082C31.1606 27.8444 30.9303 27.7501 30.6939 27.7501Z" fill="#284268"/>
<path d="M40.0847 29.2541C40.2512 29.0903 40.3471 28.863 40.3471 28.6312C40.3471 28.3995 40.2512 28.1722 40.0847 28.0083C39.918 27.8444 39.6878 27.7502 39.4514 27.7502C39.2158 27.7502 38.9847 27.8444 38.8181 28.0083C38.6515 28.1722 38.5557 28.3995 38.5557 28.6312C38.5557 28.8639 38.6515 29.0903 38.8181 29.2541C38.9847 29.418 39.2158 29.5123 39.4514 29.5123C39.6878 29.5122 39.918 29.4179 40.0847 29.2541Z" fill="#284268"/>
<path d="M35.0727 33.0026C33.221 33.0026 31.5936 34.2325 31.1153 35.9934C30.9876 36.4636 31.2716 36.9464 31.7495 37.072C32.2278 37.198 32.7183 36.9183 32.8461 36.4482C33.1153 35.457 34.0311 34.7647 35.0726 34.7647C36.1144 34.7647 37.0301 35.4571 37.2992 36.4482C37.4062 36.8422 37.7682 37.1022 38.164 37.1022C38.2405 37.1022 38.3184 37.0925 38.3958 37.072C38.8738 36.9464 39.1577 36.4636 39.03 35.9934C38.5519 34.2325 36.9245 33.0026 35.0727 33.0026Z" fill="#284268"/>
<path d="M13.4451 3.99593C6.66479 5.43304 2.37869 12.3091 3.87188 19.354C4.71299 23.3224 7.2086 26.4978 10.4396 28.2576L11.5725 33.6026L14.0906 29.563C15.6275 29.8524 17.2377 29.85 18.8524 29.5078C25.6328 28.0707 29.9189 21.1946 28.4257 14.1497C26.9325 7.10478 20.2255 2.55881 13.4451 3.99593Z" fill="#62CD4D"/>
<path d="M29.6408 13.7559C29.7818 14.4211 29.8685 15.0855 29.9039 15.7444M27.2805 8.61384C24.2921 4.70632 19.1687 2.64655 13.9686 3.74874C6.80625 5.26681 2.21048 12.2085 3.70367 19.2535C4.54477 23.2218 7.13865 26.3764 10.5238 28.1035L11.6567 33.4485L14.3567 29.3704C15.9732 29.6429 17.6702 29.6221 19.3759 29.2606C25.2245 28.021 29.3618 23.1648 29.8697 17.5891" stroke="#284268" stroke-linecap="round" stroke-linejoin="round"/>
<path d="M13.1906 13.5541C13.024 13.3902 12.7938 13.2959 12.5573 13.2959C12.3217 13.2959 12.0907 13.3902 11.924 13.5541C11.7575 13.7179 11.6616 13.9452 11.6616 14.177C11.6616 14.4087 11.7575 14.636 11.924 14.7999C12.0907 14.9638 12.3217 15.058 12.5573 15.058C12.7929 15.058 13.024 14.9638 13.1906 14.7999C13.3582 14.636 13.453 14.4087 13.453 14.177C13.453 13.9452 13.3581 13.7178 13.1906 13.5541Z" fill="#284268"/>
<path d="M22.25 14.7998C22.4166 14.6359 22.5124 14.4086 22.5124 14.1769C22.5124 13.9451 22.4166 13.7178 22.25 13.554C22.0834 13.3901 21.8524 13.2958 21.6167 13.2958C21.3801 13.2958 21.1491 13.3901 20.9825 13.554C20.8159 13.7178 20.7209 13.9451 20.7209 14.1769C20.7209 14.4086 20.816 14.6359 20.9825 14.7998C21.15 14.9637 21.381 15.0579 21.6167 15.0579C21.8523 15.0579 22.0824 14.9638 22.25 14.7998Z" fill="#284268"/>
<path d="M17.0869 22.9086C18.9885 22.9086 20.6596 21.6456 21.1508 19.8371C21.2785 19.367 20.9945 18.8842 20.5166 18.7585C20.0384 18.6326 19.5477 18.9123 19.42 19.3823C19.138 20.421 18.1786 21.1464 17.0869 21.1464C15.9953 21.1464 15.036 20.421 14.7539 19.3823C14.6262 18.9122 14.1354 18.6325 13.6573 18.7585C13.1794 18.8842 12.8955 19.367 13.0231 19.8371C13.5143 21.6456 15.1854 22.9086 17.0869 22.9086Z" fill="#284268"/>
</svg>
