<svg width="68" height="68" viewBox="0 0 68 68" fill="none" xmlns="http://www.w3.org/2000/svg">
<path d="M56.0408 42.9582C58.3636 37.2563 58.4902 30.663 55.8694 24.5584C50.6753 12.4599 36.6569 6.86279 24.5584 12.0569C12.4599 17.2509 6.86278 31.2693 12.0569 43.3678C17.2509 55.4664 31.2693 61.0635 43.3678 55.8694C45.8845 54.789 48.1198 53.3267 50.0352 51.5793M54.461 46.139C54.1837 46.6067 53.8901 47.0654 53.5807 47.5142" stroke="#2D3192" stroke-width="1.3" stroke-linecap="round"/>
<path d="M24.8552 25.5V52.0246L26.9739 52V18.9043C26.9739 18.4048 26.5002 18 25.9145 18C25.3301 18 24.8552 18.4048 24.8552 18.9043V21.605" stroke="#0000D0" stroke-miterlimit="10" stroke-linecap="round" stroke-linejoin="round"/>
<path d="M24.8552 23.5659V23.9977" stroke="#0000D0" stroke-miterlimit="10" stroke-linecap="round" stroke-linejoin="round"/>
<path d="M40 31C34.0623 35.2694 29.6622 36.17 26.9739 35.1328C26.9739 32.2759 26.9739 20.5666 26.9739 20.5666C26.9739 20.5666 29.6438 23.5871 33.3287 24.2896C38.207 25.221 47.4187 20.9197 52.3291 27.6916C52.3291 27.6916 50.3421 25.4757 44.2666 28.4421" stroke="#0000D0" stroke-miterlimit="10" stroke-linecap="round" stroke-linejoin="round"/>
<path d="M42.6277 29.2935C42.3989 29.4276 42.1663 29.5679 41.9289 29.7155" stroke="#0000D0" stroke-miterlimit="10" stroke-linecap="round" stroke-linejoin="round"/>
<path d="M27.9434 23.3078C27.9434 23.3078 29.8468 25.5581 34.9737 25.9235C40.0993 26.2902 42.7114 24.6784 47.9109 25.9235C46.6904 25.9974 42.1504 27.7285 35.8042 31.8305C31.3859 34.6862 27.9446 33.8569 27.9446 33.8569V23.3078H27.9434Z" fill="#86F7A6"/>
</svg>
