<svg width="41" height="41" viewBox="0 0 41 41" fill="none" xmlns="http://www.w3.org/2000/svg">
<path d="M34.445 22V19L32.445 20L34.445 22Z" fill="#F5FFCD"/>
<ellipse cx="26.945" cy="11.5" rx="11" ry="10.5" fill="#F5FFCD"/>
<path d="M4.54966 14.5098L13.3869 14C15.2473 23.1765 21.759 24.7059 25.945 25.2157V31.8431C25.945 35.4118 23.1543 36.4314 22.2241 36.4314H13.852L13.3869 40L10.1311 36.4314C9.5109 36.6013 7.71245 36.8392 5.47989 36.4314C2.68919 35.9216 1.75896 34.3922 1.29384 32.8627C0.828728 31.3333 0.828728 21.1373 1.29384 18.0784C1.66594 15.6314 3.61943 14.6797 4.54966 14.5098Z" fill="#B7E5FF"/>
<path d="M13.3305 38.3221L13.5863 38.5779L13.5865 38.2161L13.5876 36.6262C13.5879 36.2675 13.8787 35.9769 14.2374 35.9769H22.8716C25.1593 35.9769 27.0202 34.116 27.0202 31.8284V26.3104C27.0202 25.9516 27.3111 25.6607 27.6699 25.6607C28.0287 25.6607 28.3196 25.9516 28.3196 26.3104V31.8284C28.3196 34.8322 25.8755 37.2763 22.8716 37.2763H15.0364H14.8865L14.8864 37.4262L14.8845 40.1458C14.8843 40.4085 14.726 40.6452 14.4832 40.7457L14.5405 40.8843L14.4832 40.7457C14.4029 40.7789 14.3185 40.795 14.235 40.795C14.0657 40.795 13.8997 40.729 13.7754 40.6047L10.4909 37.3203L10.447 37.2763H10.3848H5.59795C2.59408 37.2763 0.15 34.8322 0.15 31.8284V19.5129C0.15 16.509 2.59408 14.0649 5.59795 14.0649H13.675C14.0338 14.0649 14.3247 14.3558 14.3247 14.7146C14.3247 15.0735 14.0338 15.3643 13.675 15.3643H5.59795C3.31032 15.3643 1.44942 17.2252 1.44942 19.5129V31.8284C1.44942 34.116 3.31032 35.9769 5.59795 35.9769H10.7944C11.0599 35.9769 11.2898 36.1366 11.3903 36.3673L11.4016 36.3933L11.4217 36.4134L13.3305 38.3221Z" fill="#2D3192" stroke="white" stroke-width="0.3"/>
<path d="M35.436 19.7554C38.0156 17.8127 39.4956 14.8479 39.4956 11.6234C39.4956 6.01333 34.9318 1.44942 29.3217 1.44942H27.2977C21.6876 1.44942 17.1237 6.01333 17.1237 11.6234C17.1237 17.2335 21.6875 21.7975 27.2977 21.7975H29.3217C30.341 21.7975 31.3478 21.647 32.3141 21.35L32.3141 21.35C32.377 21.3307 32.4413 21.3213 32.5048 21.3213C32.6746 21.3213 32.8405 21.3879 32.9642 21.5115C32.9642 21.5115 32.9642 21.5115 32.9642 21.5115L34.9212 23.4674L35.1772 23.7233V23.3613V20.2744C35.1772 20.0704 35.2731 19.8782 35.436 19.7554ZM35.436 19.7554L35.3457 19.6356L35.436 19.7554C35.436 19.7554 35.436 19.7554 35.436 19.7554ZM32.3778 22.7625L32.3169 22.7017L32.2338 22.7235C31.2866 22.9713 30.3092 23.0968 29.3216 23.0968H27.2976C20.9714 23.0968 15.8243 17.9498 15.8243 11.6234C15.8243 5.2971 20.9714 0.15 27.2977 0.15H29.3217C35.6479 0.15 40.795 5.2971 40.795 11.6234C40.795 13.4565 40.3757 15.2076 39.5484 16.8294C38.82 18.2573 37.7819 19.5358 36.5322 20.5478L36.4766 20.5928V20.6644V25.2912C36.4766 25.5539 36.3183 25.7908 36.0756 25.8914L36.0756 25.8914C35.9952 25.9247 35.9108 25.9409 35.8271 25.9409C35.6579 25.9409 35.4919 25.8748 35.3676 25.7507C35.3676 25.7507 35.3676 25.7507 35.3676 25.7507L32.3778 22.7625Z" fill="#2D3192" stroke="white" stroke-width="0.3"/>
<path d="M31.911 8.7505C31.7956 7.07632 30.446 5.72673 28.7717 5.61133C27.8226 5.54616 26.9169 5.86628 26.2236 6.51348C25.5399 7.15173 25.1478 8.05396 25.1478 8.9889C25.1478 9.43058 25.5059 9.78861 25.9475 9.78861C26.3891 9.78861 26.7472 9.43058 26.7472 8.9889C26.7472 8.48836 26.9489 8.02445 27.315 7.68273C27.6808 7.34134 28.1588 7.17236 28.6619 7.20707C29.5438 7.26785 30.2546 7.97871 30.3154 8.86054C30.3768 9.75118 29.7925 10.5383 28.9261 10.7321C28.2241 10.8892 27.7339 11.4992 27.7339 12.2155V14.1368C27.7339 14.5785 28.092 14.9365 28.5336 14.9365C28.9753 14.9365 29.3333 14.5785 29.3332 14.1368V12.2794C30.9446 11.8901 32.0257 10.4156 31.911 8.7505Z" fill="#2D3192"/>
<path d="M29.0989 16.7346C28.9502 16.5859 28.7439 16.5003 28.5335 16.5003C28.3232 16.5003 28.1169 16.5859 27.9681 16.7346C27.8194 16.8834 27.7338 17.0897 27.7338 17.3C27.7338 17.5112 27.8195 17.7175 27.9681 17.8662C28.1169 18.015 28.3232 18.0998 28.5335 18.0998C28.7439 18.0998 28.9502 18.015 29.0989 17.8662C29.2477 17.7167 29.3332 17.5112 29.3332 17.3C29.3332 17.0897 29.2476 16.8834 29.0989 16.7346Z" fill="#2D3192"/>
<path d="M19.2685 24.7909H4.9949C4.62135 24.7909 4.31842 25.149 4.31842 25.5906C4.31842 26.0323 4.62135 26.3903 4.9949 26.3903H19.2685C19.6421 26.3903 19.945 26.0323 19.945 25.5906C19.945 25.149 19.6421 24.7909 19.2685 24.7909Z" fill="#2D3192"/>
<path d="M22.31 29.5036C22.1614 29.3549 21.955 29.2693 21.7447 29.2693C21.5344 29.2693 21.3281 29.3549 21.1793 29.5036C21.0305 29.6523 20.945 29.8587 20.945 30.069C20.945 30.2793 21.0306 30.4856 21.1793 30.6344C21.3281 30.7831 21.5344 30.8687 21.7447 30.8687C21.955 30.8687 22.1614 30.7831 22.31 30.6344C22.4589 30.4856 22.5444 30.2801 22.5444 30.069C22.5444 29.8587 22.4588 29.6523 22.31 29.5036Z" fill="#2D3192"/>
<path d="M18.8465 29.2693H5.11813C4.67653 29.2693 4.31842 29.6273 4.31842 30.069C4.31842 30.5107 4.67653 30.8687 5.11813 30.8687H18.8465C19.2882 30.8687 19.6462 30.5107 19.6462 30.069C19.6462 29.6273 19.2881 29.2693 18.8465 29.2693Z" fill="#2D3192"/>
<path d="M14.3049 20.3126H4.95858C4.60508 20.3126 4.31842 20.6706 4.31842 21.1123C4.31842 21.5539 4.60508 21.912 4.95858 21.912H14.3049C14.6584 21.912 14.945 21.5539 14.945 21.1123C14.945 20.6706 14.6583 20.3126 14.3049 20.3126Z" fill="#2D3192"/>
</svg>
