<svg width="26" height="42" viewBox="0 0 26 42" fill="none" xmlns="http://www.w3.org/2000/svg">
<path d="M25.1 34.6V38.9C25.1 39.7 24.4 40.4 23.6 40.4H2.19995C1.39995 40.4 0.699951 39.7 0.699951 38.9V3.90002C0.699951 3.10002 1.39995 2.40002 2.19995 2.40002H23.7C24.5 2.40002 25.2 3.10002 25.2 3.90002V28.8" fill="#FFFBD7"/>
<path d="M25.1 34.6V38.9C25.1 39.7 24.4 40.4 23.6 40.4H2.19995C1.39995 40.4 0.699951 39.7 0.699951 38.9V3.90002C0.699951 3.10002 1.39995 2.40002 2.19995 2.40002H23.7C24.5 2.40002 25.2 3.10002 25.2 3.90002V28.8" stroke="#54469D" stroke-width="1.3" stroke-miterlimit="10" stroke-linecap="round" stroke-linejoin="round"/>
<path d="M25.1001 31V31.8" stroke="#54469D" stroke-width="1.3" stroke-miterlimit="10" stroke-linecap="round" stroke-linejoin="round"/>
<path d="M17.1 4.3H8.70005C7.70005 4.3 6.80005 3.4 6.80005 2.4C6.80005 1.4 7.70005 0.5 8.70005 0.5H17.1C18.1 0.5 19 1.4 19 2.4C19 3.5 18.2 4.3 17.1 4.3Z" fill="white" stroke="#54469D" stroke-miterlimit="10"/>
<path d="M12.3 28.3L6.20005 26.3C6.00005 26.2 5.80005 26 5.80005 25.7V15.5C5.80005 15.1 6.20005 14.8 6.50005 14.9L12.6 16.9C12.8 17 13 17.2 13 17.5V27.7C13 28.1 12.7 28.4 12.3 28.3Z" fill="white" stroke="#54469D" stroke-miterlimit="10"/>
<path d="M13.7 28.3L19.8 26.3C20 26.2 20.2 26 20.2 25.7V15.5C20.2 15.1 19.8 14.8 19.5 14.9L13.4 16.9C13.2 17 13 17.2 13 17.5V27.7C13 28.1 13.4 28.4 13.7 28.3Z" fill="white" stroke="#54469D" stroke-miterlimit="10"/>
<path d="M6.1001 14.9L12.6001 13.1C12.9001 13 13.2001 13 13.5001 13.1L19.8001 14.9C19.9001 14.9 19.9001 15 19.8001 15L13.1001 17.2L6.1001 15C6.1001 15 6.1001 14.9 6.1001 14.9Z" fill="white" stroke="#54469D" stroke-miterlimit="10"/>
<path d="M20 32.4H5.80005C5.50005 32.4 5.30005 32.2 5.30005 31.9V31.7C5.30005 31.4 5.50005 31.2 5.80005 31.2H20C20.3 31.2 20.5 31.4 20.5 31.7V31.9C20.4 32.2 20.2 32.4 20 32.4Z" fill="#B6C4CF"/>
<path d="M6.30005 26.6L12.7 29C12.9 29.1 13.1 29.1 13.4 29L20.1 26.7C20.1 26.7 15.2 28.5 11.3 27.8C7.40005 27.1 6.30005 26.6 6.30005 26.6Z" fill="#54469D"/>
</svg>
