<svg width="33" height="48" viewBox="0 0 33 48" fill="none" xmlns="http://www.w3.org/2000/svg">
<path d="M2.71666 24.4654C4.27553 29.0393 12.1349 39.3943 15.8697 44L17.8183 41.6177C22.0403 35.9003 30.5816 22.9407 30.9713 16.8421C31.4585 9.21884 25.6127 4.93075 23.1769 3.02493C20.7412 1.11911 10.9982 -1.26316 5.1524 5.4072C-0.693387 12.0776 0.76806 18.7479 2.71666 24.4654Z" fill="#97DA7B"/>
<path d="M21.7132 39C18.8538 43.1229 16.5152 46 16.5152 46C16.5152 46 1 27.4823 1 16.6418C1 8.01697 7.95336 1 16.5 1C25.0469 1 32 8.01697 32 16.6418C32 20.6504 29.658 25.9814 26.7955 31M24.5 34.8056C24.7248 34.451 24.9493 34.0923 25.1729 33.7302" stroke="#2D3192" stroke-width="1.3" stroke-linecap="round"/>
<circle cx="16.5" cy="17.5" r="6" fill="white" stroke="#2D3192"/>
</svg>
