<svg width="37" height="26" viewBox="0 0 37 26" fill="none" xmlns="http://www.w3.org/2000/svg">
<path d="M1.23328 1.56284L15.8962 16.4809C15.8962 16.4809 18.4999 17.9016 19.7333 17.1913C20.9666 16.3388 35.6296 1.56284 35.6296 1.56284C35.6296 1.56284 36.3148 1.56284 36.4518 7.53005C36.5888 13.4973 36.1777 23.8688 35.6296 24.8634C34.9444 25.8579 29.6 25.4317 28.3666 25.5738C27.1333 25.7158 2.32958 25.1475 1.78143 25.2896C1.23328 25.4317 0.548096 23.1585 0.548096 21.8798C0.548096 20.6011 1.23328 1.56284 1.23328 1.56284Z" fill="#FFFBD7"/>
<path d="M1.78149 0.710388H35.9037L20.5556 16.623C20.5556 16.623 17.4037 17.7596 16.9926 17.1913C16.5815 16.623 1.78149 0.710388 1.78149 0.710388Z" fill="#FFFBD7"/>
<path d="M10.0037 0C9.59263 0 9.18152 0.284153 9.18152 0.710383C9.18152 1.13661 9.59263 1.56284 10.0037 1.56284C10.4149 1.56284 10.6889 1.27869 10.6889 0.852459C10.6889 0.42623 10.4149 0 10.0037 0Z" fill="#54469D"/>
<path d="M30.8333 5.11475L20.6926 15.6284C19.4593 16.9071 17.5407 16.9071 16.3074 15.6284L2.74074 1.56284H2.87778H6.71482C7.12593 1.56284 7.4 1.27869 7.4 0.852459C7.4 0.42623 7.12593 0 6.71482 0H2.87778C1.23333 0 0 1.27869 0 2.98361V23.0164C0 24.7213 1.23333 26 2.87778 26H34.1222C35.7667 26 37 24.7213 37 23.0164V2.98361C37 1.27869 35.7667 0 34.1222 0H13.1556C12.7444 0 12.4704 0.284153 12.4704 0.710383C12.4704 1.13661 12.7444 1.42077 13.1556 1.42077H34.1222H34.2593L32.2037 3.55191L30.8333 5.11475ZM1.50741 23.0164V2.98361C1.50741 2.69945 1.50741 2.55738 1.64444 2.4153L11.6481 12.7869L1.50741 23.3005C1.50741 23.1585 1.50741 23.1585 1.50741 23.0164ZM34.1222 24.4372H2.87778C2.74074 24.4372 2.6037 24.4372 2.46667 24.4372L12.6074 13.9235L15.2111 16.623C16.0333 17.4754 17.2667 18.0437 18.363 18.0437C19.4593 18.0437 20.6926 17.6175 21.5148 16.623L24.1185 13.9235L34.2593 24.4372C34.3963 24.4372 34.2593 24.4372 34.1222 24.4372ZM35.6296 23.0164C35.6296 23.1585 35.6296 23.3005 35.6296 23.4426L25.3519 12.7869L35.4926 2.27322C35.4926 2.55738 35.6296 2.84153 35.6296 2.98361V23.0164Z" fill="#54469D"/>
</svg>
