<svg width="37" height="37" viewBox="0 0 37 37" fill="none" xmlns="http://www.w3.org/2000/svg">
<g clip-path="url(#clip0)">
<path d="M17.8334 12.7449C19.5015 12.7355 20.9727 12.6324 22.4347 12.3138C23.2593 12.1358 24.0746 11.9202 24.7868 11.461C25.574 10.9456 25.5834 10.3084 24.7775 9.83042C24.2995 9.54929 23.7748 9.315 23.2406 9.17443C19.9232 8.32165 16.5776 8.32165 13.2414 9.05261C12.5667 9.20255 11.9013 9.47432 11.2922 9.80231C10.4019 10.2802 10.4113 10.9737 11.2922 11.4985C11.6764 11.7234 12.1075 11.9108 12.5386 12.042C14.3191 12.5949 16.1559 12.7261 17.8334 12.7449ZM10.6362 17.871C10.6362 18.6863 10.6643 19.4172 10.6269 20.1482C10.5987 20.7011 10.8237 21.0853 11.2922 21.3102C11.8451 21.5726 12.4168 21.8444 13.0072 21.985C16.1747 22.7534 19.3703 22.744 22.5565 22.0974C23.3624 21.9381 24.159 21.7132 24.8243 21.2259C25.0492 21.0572 25.3116 20.7761 25.3304 20.523C25.396 19.6703 25.3585 18.8081 25.3585 17.871C24.9274 18.5176 24.3089 18.7612 23.681 18.9768C21.9192 19.5672 20.1012 19.7265 18.2551 19.7452C16.3058 19.764 14.3754 19.6234 12.5105 19.0424C11.8264 18.8362 11.1423 18.5832 10.6362 17.871ZM25.3679 13.0448C25.1148 13.2509 24.918 13.504 24.6557 13.6258C24.0184 13.9069 23.3718 14.1974 22.6971 14.3474C19.7638 15.0127 16.8119 15.0221 13.8599 14.4692C12.6885 14.2537 11.4984 14.0194 10.6362 12.9979C10.6362 13.7664 10.6643 14.5067 10.6269 15.2376C10.5987 15.7999 10.833 16.1748 11.3016 16.3997C11.8451 16.6621 12.398 16.9338 12.9884 17.0744C16.1747 17.8429 19.3796 17.8616 22.5752 17.1775C23.3062 17.0182 24.009 16.7089 24.7025 16.4091C25.068 16.2497 25.3679 15.9592 25.3772 15.5C25.3772 14.6847 25.3679 13.8694 25.3679 13.0448ZM10.6362 22.7815C10.6362 23.2969 10.655 23.728 10.6362 24.1497C10.6081 24.8713 10.908 25.4336 11.4515 25.8928C12.0794 26.4082 12.8104 26.7174 13.5788 26.9236C16.3152 27.6546 19.0797 27.6639 21.8349 27.0829C22.8095 26.8768 23.7466 26.5581 24.5432 25.9115C24.9649 25.5742 25.3023 25.1524 25.3398 24.5995C25.3866 24.0279 25.3491 23.4469 25.3491 22.8096C24.9649 23.3813 24.4214 23.6249 23.8497 23.8405C23.6436 23.9154 23.428 23.9904 23.2218 24.0466C21.0946 24.6277 18.9111 24.7401 16.7276 24.637C15.2938 24.5714 13.8599 24.4027 12.4917 23.9529C11.8076 23.728 11.1329 23.4937 10.6362 22.7815Z" fill="#454DAF"/>
<path fill-rule="evenodd" clip-rule="evenodd" d="M13.2229 8.96765C16.5713 8.23401 19.9307 8.23377 23.2623 9.0902L23.2628 9.09032C23.8061 9.23329 24.3382 9.4711 24.8217 9.75546L24.8219 9.75562C25.236 10.0012 25.4666 10.3031 25.4666 10.6317C25.4666 10.9586 25.2379 11.2697 24.8346 11.5338L24.8341 11.5342C24.1077 12.0025 23.2789 12.2205 22.4533 12.3988C20.9831 12.7192 19.5052 12.8225 17.8339 12.8319L17.8325 12.8319C16.152 12.8131 14.3055 12.6817 12.5131 12.1252C12.0758 11.9921 11.6385 11.802 11.2483 11.5736L11.2478 11.5733C10.7976 11.3051 10.5425 10.9777 10.5411 10.6332C10.5398 10.2867 10.7948 9.97069 11.2511 9.7257C11.8655 9.39488 12.5384 9.11976 13.2226 8.9677L13.2229 8.96765ZM13.2603 9.13757C12.5951 9.28539 11.9373 9.55378 11.3335 9.87892C10.8996 10.1119 10.7141 10.3816 10.7151 10.6325C10.7161 10.8854 10.906 11.1671 11.3365 11.4236C11.7146 11.6449 12.1394 11.8296 12.564 11.9588L12.5645 11.959C14.3329 12.5081 16.1596 12.6392 17.8337 12.6579C19.4983 12.6485 20.9627 12.5456 22.4162 12.2288C23.2398 12.051 24.0416 11.838 24.7396 11.3881C25.1232 11.1368 25.2927 10.8716 25.2927 10.6317C25.2927 10.3933 25.125 10.1377 24.7334 9.90537C24.261 9.62751 23.7437 9.39679 23.2187 9.25863C19.9156 8.40957 16.584 8.40934 13.2603 9.13757ZM10.5493 12.76L10.7028 12.9418C11.5422 13.9364 12.701 14.1675 13.8758 14.3837L13.876 14.3837C16.8172 14.9346 19.7572 14.9251 22.6779 14.2626L22.6783 14.2625C23.3221 14.1194 23.9412 13.8461 24.5603 13.5728C24.5802 13.5641 24.6 13.5553 24.6198 13.5466C24.7381 13.4915 24.8446 13.4055 24.9565 13.3028C24.9903 13.2718 25.025 13.2389 25.0607 13.205C25.14 13.1296 25.2241 13.0498 25.313 12.9773L25.4549 12.8617V13.0448C25.4549 13.4568 25.4573 13.8666 25.4596 14.2754L25.4596 14.2794C25.462 14.6869 25.4643 15.0934 25.4643 15.5001V15.5018C25.454 16.0067 25.1215 16.3214 24.7373 16.4888L24.7371 16.4889C24.7141 16.4988 24.6912 16.5088 24.6681 16.5188C23.9983 16.8086 23.31 17.1064 22.5938 17.2625L22.5935 17.2626C19.3856 17.9493 16.1675 17.9306 12.9682 17.159C12.387 17.0206 11.8428 16.7577 11.3182 16.5043C11.3 16.4955 11.2819 16.4868 11.2638 16.478C11.0175 16.3598 10.8272 16.1993 10.7032 15.9895C10.5791 15.7797 10.5253 15.5277 10.54 15.2333C10.566 14.7264 10.5603 14.2164 10.5545 13.6926C10.5519 13.464 10.5493 13.2327 10.5493 12.9979V12.76ZM10.724 13.2252C10.725 13.379 10.7267 13.532 10.7284 13.6844C10.7343 14.2109 10.7401 14.7295 10.7138 15.242C10.7004 15.51 10.7497 15.7265 10.8529 15.9009C10.9561 16.0753 11.1172 16.2147 11.3393 16.3213L11.3395 16.3214C11.3555 16.3291 11.3715 16.3368 11.3875 16.3446C11.9171 16.6003 12.4462 16.8559 13.0086 16.9898L13.0089 16.9899C16.182 17.7551 19.3737 17.7739 22.5569 17.0925C23.2562 16.9401 23.9306 16.6483 24.605 16.3565C24.626 16.3474 24.647 16.3384 24.6679 16.3293C25.0145 16.1782 25.2815 15.9121 25.2903 15.4992C25.2903 15.0931 25.288 14.687 25.2857 14.2794L25.2856 14.2764C25.2837 13.931 25.2817 13.5845 25.2811 13.2364C25.2494 13.2658 25.2181 13.2955 25.1866 13.3254C25.1497 13.3605 25.1126 13.3958 25.0742 13.431C24.959 13.5367 24.8362 13.6379 24.6924 13.7047L24.6908 13.7054C24.6688 13.7151 24.6468 13.7248 24.6247 13.7346C24.0102 14.0059 23.3771 14.2854 22.7162 14.4323C19.7707 15.1004 16.8068 15.1096 13.8443 14.5548C12.7426 14.3521 11.5935 14.1293 10.724 13.2252ZM25.4456 17.5837V17.871C25.4456 18.1228 25.4483 18.37 25.451 18.6137C25.4583 19.2719 25.4653 19.9041 25.4172 20.5297C25.4059 20.6813 25.3235 20.8313 25.2233 20.9597C25.1217 21.0898 24.9939 21.2075 24.8766 21.2955L24.8758 21.2961C24.1946 21.795 23.3826 22.0228 22.5737 22.1827C19.3764 22.8316 16.1678 22.8413 12.9868 22.0695C12.3896 21.9273 11.813 21.6537 11.2648 21.3935L11.2546 21.3887C11.0074 21.27 10.8195 21.1067 10.698 20.8956C10.5766 20.6848 10.5253 20.4331 10.5401 20.1438C10.5659 19.6399 10.5604 19.1375 10.5546 18.6041C10.552 18.3668 10.5493 18.1234 10.5493 17.871V17.5984L10.7072 17.8206C11.1953 18.5075 11.8543 18.7538 12.5357 18.9591L12.5364 18.9593C14.389 19.5365 16.3093 19.677 18.2543 19.6583C20.0964 19.6396 21.904 19.4805 23.6532 18.8944C24.2801 18.6792 24.8727 18.443 25.2862 17.8227L25.4456 17.5837ZM10.7241 18.1243C10.7251 18.284 10.7268 18.441 10.7285 18.596C10.7344 19.1322 10.7399 19.6432 10.7138 20.1526C10.7004 20.4162 10.7475 20.633 10.8487 20.8088C10.9498 20.9843 11.1085 21.1255 11.3297 21.2317C11.3298 21.2317 11.3299 21.2318 11.3299 21.2318L11.3309 21.2323C11.885 21.4953 12.4479 21.7624 13.0274 21.9004L13.0277 21.9004C16.1816 22.6656 19.3642 22.6565 22.5393 22.0122L22.5397 22.0121C23.3424 21.8534 24.1232 21.6315 24.7726 21.156C24.8801 21.0754 24.9958 20.9683 25.0862 20.8526C25.178 20.735 25.2362 20.618 25.2437 20.5166L25.2437 20.5164C25.2912 19.899 25.2843 19.2781 25.2771 18.6226C25.2753 18.461 25.2735 18.2972 25.2724 18.1309C24.8376 18.6482 24.2674 18.8675 23.7094 19.0591L23.7088 19.0593C21.9345 19.6538 20.1061 19.8134 18.256 19.8322C16.3027 19.851 14.3621 19.7103 12.4851 19.1256C11.8654 18.9388 11.2277 18.709 10.7241 18.1243ZM10.5493 22.5047L10.7077 22.7318C11.1861 23.4179 11.8344 23.6452 12.519 23.8703C13.8765 24.3166 15.3015 24.4847 16.7316 24.5501C18.9097 24.653 21.0835 24.5405 23.199 23.9627C23.4014 23.9075 23.614 23.8337 23.8196 23.7589C24.3891 23.5441 24.9092 23.3083 25.277 22.7611L25.4362 22.5243V22.8096C25.4362 23.006 25.4398 23.1985 25.4434 23.3881C25.4514 23.8063 25.459 24.2097 25.4266 24.6061C25.3865 25.1938 25.0276 25.6354 24.5978 25.9793C23.7859 26.6383 22.8335 26.9606 21.853 27.1681C19.0858 27.7516 16.3073 27.7425 13.5564 27.0077C12.7805 26.7995 12.0369 26.4858 11.3964 25.96L11.3955 25.9592C10.8351 25.4858 10.52 24.8991 10.5494 24.1464L10.5494 24.1459C10.5615 23.873 10.5578 23.598 10.5538 23.2957C10.5516 23.1335 10.5493 22.9634 10.5493 22.7815V22.5047ZM10.7247 23.0382C10.7255 23.1227 10.7266 23.2053 10.7277 23.2864C10.7318 23.5922 10.7355 23.8758 10.7232 24.1533C10.7232 24.1534 10.7232 24.1535 10.7232 24.1536L10.6363 24.1497L10.7232 24.1531C10.7232 24.1532 10.7232 24.1533 10.7232 24.1533C10.6964 24.8434 10.9809 25.3811 11.5073 25.8259C11.5071 25.8258 11.5069 25.8257 11.5068 25.8256L11.4516 25.8928L11.5077 25.8263C11.5076 25.8262 11.5074 25.8261 11.5073 25.8259C12.1224 26.3308 12.8406 26.6355 13.6014 26.8396C13.6015 26.8396 13.6014 26.8396 13.6014 26.8396C16.3233 27.5667 19.0739 27.5763 21.817 26.9978C21.817 26.9978 21.817 26.9978 21.817 26.9978C22.7855 26.793 23.7073 26.4781 24.4884 25.844L24.4889 25.8436C24.9023 25.5129 25.2179 25.1113 25.253 24.5937L25.2531 24.5925C25.2849 24.2048 25.2775 23.8155 25.2696 23.402C25.2675 23.2918 25.2654 23.1799 25.2639 23.0658C25.3188 23.0016 25.3714 22.9326 25.4214 22.8582L25.3492 22.8096H25.2622C25.2622 22.8963 25.2629 22.9817 25.2639 23.0658C24.8792 23.5164 24.3825 23.7326 23.8805 23.9219L23.8795 23.9222C23.6729 23.9974 23.4546 24.0734 23.2448 24.1306C23.2448 24.1306 23.2448 24.1306 23.2448 24.1306C21.1058 24.7148 18.9124 24.8273 16.7235 24.7239C16.7235 24.7239 16.7236 24.7239 16.7235 24.7239C15.2861 24.6582 13.8435 24.4889 12.4646 24.0356C11.8494 23.8333 11.2198 23.6176 10.7247 23.0382Z" fill="#454DAF"/>
<path d="M35.9668 19.1267C35.8731 19.7733 35.8075 20.42 35.695 21.0666C34.8235 25.8366 32.4151 29.6694 28.5073 32.5276C25.3117 34.8705 21.7131 36.0419 17.749 35.9482C12.1825 35.817 7.59059 33.5772 3.96391 29.3508C3.88894 29.2664 3.81397 29.1727 3.739 29.079C3.72963 29.0603 3.70152 29.0603 3.64529 29.0228C3.57032 29.332 3.48598 29.6225 3.41101 29.9224C3.33604 30.2223 3.2517 30.5316 3.16735 30.8783C2.49262 30.7096 1.84601 30.5503 1.13379 30.3816C1.5555 28.7042 1.96783 27.0548 2.38017 25.3867C4.05762 25.3867 5.71634 25.3867 7.3938 25.3867C7.3938 26.0802 7.3938 26.7643 7.3938 27.4672C6.67221 27.4672 5.96936 27.4672 5.16343 27.4672C6.63472 29.3883 8.37778 30.8689 10.4488 31.956C14.1224 33.8771 17.974 34.3831 22.0036 33.3429C30.2597 31.2063 35.6857 22.4535 33.3147 14.0569C33.9707 13.8882 34.6361 13.7101 35.367 13.5227C35.5263 14.3755 35.6763 15.2002 35.8262 16.0155C35.8825 16.3435 35.9199 16.6808 35.9668 17.0182C35.9668 17.721 35.9668 18.4239 35.9668 19.1267Z" fill="#454DAF"/>
<path fill-rule="evenodd" clip-rule="evenodd" d="M35.4355 13.4154L35.4526 13.5068C35.5658 14.1129 35.6743 14.7049 35.7814 15.2893C35.8251 15.5272 35.8684 15.7639 35.9118 15.9998L35.912 16.0008C35.9506 16.2258 35.9805 16.4563 36.0104 16.6862C36.0244 16.7933 36.0383 16.9002 36.053 17.0063L36.0538 17.0122V19.133L36.0529 19.1393C36.0182 19.3787 35.9872 19.62 35.956 19.862C35.9038 20.2679 35.8513 20.676 35.7808 21.0815L35.7806 21.0823C34.9051 25.8742 32.4844 29.7265 28.5587 32.5979C25.3482 34.9517 21.7309 36.1294 17.747 36.0352C12.1554 35.9034 7.54061 33.6523 3.89841 29.4081C3.83134 29.3326 3.76452 29.25 3.6989 29.1681C3.66696 29.2942 3.63335 29.4197 3.6001 29.5439C3.56395 29.679 3.5282 29.8125 3.49543 29.9436C3.46375 30.0703 3.43081 30.1972 3.39703 30.3272C3.34992 30.5087 3.30117 30.6964 3.25191 30.8989L3.23122 30.984L3.14629 30.9627C2.47175 30.7941 1.82551 30.6349 1.11377 30.4663L1.02795 30.446L1.04946 30.3605C1.47115 28.6831 1.88345 27.0339 2.29575 25.3659L2.3121 25.2998H7.48082V27.5542H5.34075C6.78163 29.3977 8.48028 30.8245 10.4892 31.879C14.1445 33.7905 17.974 34.2934 21.9818 33.2588C30.1934 31.1336 35.588 22.4276 33.231 14.0806L33.2068 13.9949L33.2931 13.9727C33.5986 13.8941 33.9089 13.8128 34.2274 13.7293C34.588 13.6348 34.9591 13.5376 35.3455 13.4385L35.4355 13.4154ZM33.4224 14.119C35.7465 22.539 30.2979 31.2863 22.0254 33.4272C17.974 34.473 14.1003 33.9638 10.4086 32.0331C8.32592 30.94 6.5731 29.4509 5.0944 27.5201L4.98728 27.3802H7.30684V25.4738H2.4483C2.04839 27.0911 1.64836 28.6914 1.23968 30.3174C1.88906 30.4716 2.48628 30.6186 3.10372 30.7728C3.14607 30.6016 3.18853 30.438 3.22945 30.2804C3.26322 30.1503 3.29593 30.0243 3.32665 29.9014C3.36169 29.7612 3.39756 29.6274 3.43341 29.4938C3.47641 29.3334 3.51937 29.1732 3.56078 29.0023L3.59008 28.8815L3.69357 28.9505C3.71443 28.9644 3.72961 28.9714 3.74386 28.9779L3.74702 28.9794C3.7537 28.9825 3.76562 28.9879 3.7766 28.9953C3.78772 29.0027 3.80043 29.0135 3.81069 29.0294C3.88466 29.1219 3.95697 29.2121 4.02896 29.293L4.02997 29.2942C7.64106 33.5025 12.21 35.7306 17.7511 35.8612C21.6954 35.9545 25.2752 34.7894 28.4559 32.4575C32.3457 29.6125 34.7419 25.7992 35.6094 21.0513C35.6794 20.6487 35.7309 20.2487 35.7826 19.8464C35.8136 19.6056 35.8446 19.3639 35.8798 19.1205V17.0242C35.865 16.9168 35.8511 16.8101 35.8373 16.7041C35.8077 16.4764 35.7785 16.252 35.7406 16.0308C35.6973 15.795 35.6539 15.5586 35.6104 15.3209C35.5086 14.7659 35.4057 14.2043 35.2986 13.6301C34.9423 13.7218 34.6036 13.8106 34.2732 13.8972C33.9854 13.9726 33.7039 14.0464 33.4224 14.119Z" fill="#454DAF"/>
<path d="M19.1274 0.0476403C19.7647 0.131982 20.4019 0.206952 21.0298 0.319407C25.4624 1.11597 29.1078 3.25261 32.0035 6.70124C32.0691 6.78558 32.1347 6.86055 32.2097 6.94489C32.2191 6.96364 32.2472 6.96364 32.3034 7.00112C32.4627 6.39199 32.6127 5.79223 32.7814 5.14561C33.4467 5.31429 34.1027 5.47361 34.8149 5.65166C34.4026 7.32912 33.9903 8.97846 33.5686 10.6465C31.8911 10.6465 30.2417 10.6465 28.5549 10.6465C28.5549 9.96244 28.5549 9.27834 28.5549 8.56612C29.2671 8.56612 29.97 8.56612 30.7009 8.56612C27.8614 4.44277 21.2641 0.7786 14.0388 2.69034C9.83112 3.80552 6.59803 6.27016 4.36767 9.99993C2.14668 13.7016 1.63126 17.7125 2.63398 21.9577C1.96862 22.1264 1.31263 22.3044 0.591045 22.4825C0.478589 21.9108 0.33802 21.3579 0.253679 20.7956C-0.458538 15.9226 0.581673 11.4431 3.49614 7.46969C6.43872 3.44941 10.4121 1.03162 15.3508 0.244437C15.8568 0.160096 16.3629 0.103868 16.8689 0.038269C17.628 0.0476403 18.3777 0.0476403 19.1274 0.0476403Z" fill="#454DAF"/>
<path fill-rule="evenodd" clip-rule="evenodd" d="M16.8639 -0.0487671L16.8701 -0.0486911C17.6285 -0.0393276 18.3777 -0.0393265 19.1275 -0.0393265H19.1332L19.1389 -0.0385744C19.2626 -0.0222056 19.3864 -0.00616861 19.5104 0.00987789C20.0233 0.0762883 20.5374 0.142862 21.0452 0.233803C25.4981 1.03401 29.1616 3.18136 32.0702 6.64533L32.0713 6.64657L32.0723 6.64786C32.129 6.72077 32.1859 6.78673 32.2505 6.85972C32.3208 6.58947 32.389 6.32265 32.4582 6.05192C32.5353 5.75071 32.6135 5.44466 32.6973 5.12368L32.7191 5.04008L32.8028 5.06131C33.1972 5.16131 33.588 5.25791 33.9893 5.35713C34.265 5.42529 34.5457 5.49469 34.8361 5.56729L34.9202 5.5883L34.8995 5.67245C34.4871 7.35012 34.0747 8.99966 33.653 10.6679L33.6363 10.7336H28.468V8.47916H30.534C27.662 4.43796 21.1665 0.894467 14.0612 2.77445M16.8639 -0.0487671L16.8578 -0.0479759L16.8639 -0.0487671ZM16.8741 0.125351C16.7487 0.141581 16.6237 0.157211 16.4989 0.172813C16.1198 0.220198 15.7428 0.267329 15.3652 0.330266L15.3646 0.330365C10.4484 1.11397 6.49534 3.51945 3.5664 7.52109C0.666057 11.4753 -0.369209 15.9315 0.339801 20.7829C0.393771 21.1427 0.470324 21.4957 0.548333 21.8555C0.585525 22.0271 0.623047 22.2001 0.65861 22.3762C1.05268 22.2782 1.42678 22.1806 1.79505 22.0846C2.04121 22.0204 2.28475 21.9569 2.52991 21.8944C1.54869 17.6597 2.07411 13.6536 4.2931 9.95527C6.53492 6.20635 9.78665 3.72735 14.0166 2.60628C21.282 0.683916 27.9152 4.36736 30.7727 8.51681L30.8665 8.65314H28.642V10.5596H33.5009C33.9097 8.94191 34.3099 7.34134 34.7098 5.71508C34.4501 5.65028 34.1974 5.58779 33.9485 5.52627C33.575 5.43393 33.2103 5.34375 32.8438 5.25116C32.7694 5.53755 32.6977 5.81772 32.627 6.0942C32.5469 6.40738 32.468 6.71582 32.3877 7.02316L32.3568 7.14122L32.2552 7.07352C32.2332 7.05886 32.2176 7.05188 32.2026 7.04499L32.2018 7.0446C32.1951 7.04152 32.1832 7.03603 32.1722 7.02872C32.1617 7.02171 32.1498 7.01165 32.1398 6.99716C32.0671 6.91528 32.0016 6.84032 31.936 6.75601C29.0533 3.32344 25.4263 1.19788 21.0145 0.405058C20.5113 0.314934 20.0024 0.249033 19.4899 0.182662C19.3674 0.166798 19.2446 0.150908 19.1218 0.134653C18.3761 0.134653 17.6298 0.134631 16.8741 0.125351ZM16.8578 -0.0479759C16.7322 -0.0316901 16.6062 -0.0159458 16.4801 -0.000173226L16.8578 -0.0479759ZM16.4801 -0.000173226C16.1002 0.0473111 15.7182 0.0950523 15.3369 0.158602L16.4801 -0.000173226ZM15.3369 0.158602C10.3759 0.949421 6.38218 3.37949 3.42601 7.41833C0.497499 11.4109 -0.5477 15.9136 0.167673 20.8082L0.167721 20.8086C0.222418 21.1732 0.301199 21.5368 0.380079 21.9008C0.423254 22.1001 0.466459 22.2995 0.50576 22.4993L0.523372 22.5888L0.611954 22.5669C1.03889 22.4616 1.44419 22.3559 1.84135 22.2523C2.1151 22.181 2.38499 22.1106 2.65543 22.042L2.73838 22.021L2.71871 21.9377C1.72078 17.7128 2.23391 13.7254 4.44233 10.0447C6.66122 6.33413 9.87576 3.88373 14.0612 2.77445" fill="#454DAF"/>
<path d="M17.8334 12.7449C16.1559 12.7262 14.3192 12.595 12.5386 12.0327C12.1075 11.9015 11.6858 11.7141 11.2922 11.4892C10.4113 10.9738 10.402 10.2709 11.2922 9.79297C11.9014 9.46498 12.5667 9.19321 13.2415 9.04327C16.5776 8.31231 19.9232 8.31231 23.2406 9.1651C23.7748 9.30567 24.2996 9.53995 24.7775 9.82109C25.5834 10.299 25.5741 10.9456 24.7869 11.4517C24.0747 11.9203 23.2594 12.1358 22.4347 12.3045C20.9728 12.6325 19.4921 12.7356 17.8334 12.7449Z" fill="#454DAF"/>
<path d="M10.6363 17.871C11.1423 18.5832 11.8264 18.8362 12.5199 19.0518C14.3941 19.6328 16.3246 19.7733 18.2645 19.7546C20.1012 19.7359 21.9286 19.5765 23.6904 18.9862C24.3183 18.7706 24.9368 18.527 25.3679 17.8803C25.3679 18.8175 25.4054 19.6796 25.3398 20.5324C25.321 20.7854 25.0586 21.0666 24.8337 21.2353C24.1684 21.7319 23.3718 21.9475 22.5659 22.1068C19.3703 22.7534 16.184 22.7628 13.0166 21.9943C12.4262 21.8538 11.8545 21.582 11.3016 21.3196C10.8331 21.0947 10.6081 20.7105 10.6363 20.1576C10.6644 19.4172 10.6363 18.6863 10.6363 17.871Z" fill="#454DAF"/>
<path d="M25.368 13.0448C25.368 13.8601 25.368 14.6848 25.368 15.5001C25.368 15.9592 25.0588 16.2498 24.6933 16.4091C23.9998 16.7089 23.297 17.0276 22.566 17.1775C19.3704 17.8616 16.1654 17.8429 12.9792 17.0744C12.3982 16.9339 11.8453 16.6621 11.2924 16.3997C10.8238 16.1748 10.5895 15.7999 10.6176 15.2377C10.6551 14.5067 10.627 13.7664 10.627 12.9979C11.4891 14.01 12.6793 14.2537 13.8507 14.4692C16.8027 15.0127 19.7546 15.0127 22.6878 14.3474C23.3626 14.1974 24.0092 13.9069 24.6464 13.6258C24.9276 13.5133 25.1244 13.2603 25.368 13.0448Z" fill="#454DAF"/>
<path d="M10.6363 22.7815C11.1236 23.4937 11.8077 23.7374 12.4824 23.9529C13.86 24.4028 15.2845 24.5714 16.7183 24.637C18.9111 24.7401 21.0853 24.6277 23.2125 24.0466C23.4281 23.9904 23.6343 23.9154 23.8404 23.8405C24.4121 23.6249 24.9556 23.3813 25.3398 22.8096C25.3398 23.4469 25.3773 24.0279 25.3305 24.5996C25.2836 25.1525 24.9556 25.5742 24.5339 25.9115C23.7373 26.5488 22.8002 26.8768 21.8256 27.0829C19.0611 27.664 16.3059 27.6546 13.5695 26.9236C12.8011 26.7175 12.0701 26.4176 11.4422 25.8928C10.8987 25.443 10.5988 24.8807 10.6269 24.1497C10.655 23.7187 10.6363 23.2969 10.6363 22.7815Z" fill="#454DAF"/>
</g>
<defs>
<clipPath id="clip0">
<rect width="36.0138" height="36.0044" fill="white"/>
</clipPath>
</defs>
</svg>
