<svg width="51" height="50" viewBox="0 0 51 50" fill="none" xmlns="http://www.w3.org/2000/svg">
<path d="M33.5917 24.1296V25.1367C33.5917 26.5793 33.1398 27.9849 32.2992 29.1566L30.1972 32.0905V47.5581C30.1972 48.3544 29.5517 49 28.7553 49H13.7672C12.9709 49 12.3253 48.3545 12.3253 47.5581V37.1292V13.4389H33.5917V24.1296Z" fill="#FFBD86"/>
<path d="M44.3836 5.53906C44.9734 5.53906 45.4517 6.01722 45.4517 6.60711V26.2206C45.4517 26.8103 44.9735 27.2885 44.3836 27.2885H1.06795C0.478161 27.2885 0 26.8103 0 26.2206V6.60711C0 6.01722 0.478161 5.53906 1.06795 5.53906H44.3836Z" fill="#2963B8"/>
<path d="M40.3901 8.46124C40.3901 9.64276 41.3478 10.6005 42.5294 10.6005V22.2271C41.3478 22.2271 40.3901 23.1849 40.3901 24.3664H5.0613C5.0613 23.1849 4.10352 22.2271 2.922 22.2271V10.6005C4.10352 10.6005 5.0613 9.64276 5.0613 8.46124H40.3901Z" fill="#DBF1D0"/>
<path d="M14.6583 16.8217C13.6659 15.8274 12.3453 15.2798 10.9398 15.2798C10.904 15.2798 10.8679 15.2802 10.8318 15.2809C10.8286 15.2809 10.8255 15.2809 10.8224 15.281C10.3313 15.292 9.92307 14.9077 9.92307 14.4164V8.46124H5.0613C5.0613 9.64276 4.10352 10.6005 2.922 10.6005V22.2271C4.10352 22.2271 5.0613 23.1849 5.0613 24.3664H16.1968V20.5367C16.1968 19.1314 15.6493 17.8108 14.6583 16.8217Z" fill="#D5EFC8"/>
<path d="M22.7319 21.6478C25.877 21.6478 28.4267 19.0982 28.4267 15.953C28.4267 12.8079 25.877 10.2582 22.7319 10.2582C19.5867 10.2582 17.0371 12.8079 17.0371 15.953C17.0371 19.0982 19.5867 21.6478 22.7319 21.6478Z" fill="#284268"/>
<path d="M31.4758 5.65881V8.51764C31.4758 9.86962 30.379 10.9654 29.027 10.9654C27.675 10.9654 26.5792 9.86962 26.5792 8.51764V5.65881C26.5792 4.74223 27.3224 4 28.239 4H29.816C30.7326 4 31.4758 4.74223 31.4758 5.65881Z" fill="#FFBD86"/>
<path d="M26.5794 8.51764V9.53065C26.5794 10.8826 25.4836 11.9784 24.1316 11.9784C22.7796 11.9784 21.6838 10.8826 21.6838 9.53065V5.65881C21.6838 4.74223 22.4261 4 23.3426 4H24.9206C25.8372 4 26.5794 4.74223 26.5794 5.65881V8.51764Z" fill="#FFBD86"/>
<path d="M21.6837 9.53065V10.3557C21.6837 11.7076 20.5869 12.8035 19.2349 12.8035C17.8829 12.8035 16.7871 11.7076 16.7871 10.3557V9.53065V5.65881C16.7871 4.74223 17.5303 4 18.4469 4H20.0239C20.9405 4 21.6837 4.74223 21.6837 5.65881V9.53065Z" fill="#FFBD86"/>
<path d="M16.7873 5.65881V9.53065C16.7873 10.8826 15.6915 11.9784 14.3395 11.9784C12.9875 11.9784 11.8917 10.8826 11.8917 9.53065V5.65881C11.8917 4.74223 12.6339 4 13.5505 4H15.1285C16.0451 4 16.7873 4.74223 16.7873 5.65881Z" fill="#FFBD86"/>
<path d="M20.7595 9.53065V10.3557C20.7595 11.4312 19.8868 12.3035 18.8107 12.3035C17.7349 12.3035 16.8629 11.4315 16.8629 10.3557V9.53065V5.65881C16.8629 5.01875 17.3819 4.5 18.0227 4.5H19.5997C20.2405 4.5 20.7595 5.01875 20.7595 5.65881V9.53065Z" stroke="#284268"/>
<path d="M30.5516 5.65881V8.51764C30.5516 9.59322 29.6789 10.4654 28.6028 10.4654C27.527 10.4654 26.655 9.59348 26.655 8.51764V5.65881C26.655 5.01875 27.174 4.5 27.8148 4.5H29.3918C30.0326 4.5 30.5516 5.01875 30.5516 5.65881Z" stroke="#284268"/>
<path d="M25.655 8.51764V9.53065C25.655 10.6065 24.783 11.4784 23.7072 11.4784C22.6313 11.4784 21.7594 10.6065 21.7594 9.53065V5.65881C21.7594 5.01837 22.2778 4.5 22.9182 4.5H24.4962C25.1366 4.5 25.655 5.01837 25.655 5.65881V8.51764Z" stroke="#284268"/>
<path d="M15.8629 5.65881V9.53065C15.8629 10.6065 14.9909 11.4784 13.9151 11.4784C12.8392 11.4784 11.9673 10.6065 11.9673 9.53065V5.65881C11.9673 5.01837 12.4857 4.5 13.1261 4.5H14.704C15.3445 4.5 15.8629 5.01837 15.8629 5.65881Z" stroke="#284268"/>
<path d="M20.4478 36.8775C20.4478 38.8953 18.7882 40.5185 16.7709 40.4736L12.9554 40.3887L9.61345 37.0468C8.65596 36.0893 8.11829 34.7909 8.11829 33.4379V20.5931C8.11829 19.0481 9.33672 17.7469 10.8815 17.7155C11.6839 17.6992 12.4118 18.0176 12.935 18.5419C13.4463 19.0523 13.7619 19.7575 13.7619 20.5367V26.5529C13.7619 26.9514 14.0639 27.2838 14.4604 27.3249C16.0275 27.4875 17.434 28.1915 18.49 29.2467C19.6997 30.4565 20.4478 32.1279 20.4478 33.9747V36.8775Z" fill="#FFBD86"/>
<path d="M12.6931 40.9762L8.67205 37.0612C7.71455 36.1037 7.17688 34.8053 7.17688 33.4524V20.6076C7.17688 19.0626 8.39532 17.7613 9.94006 17.73C10.7425 17.7137 11.4704 18.0321 11.9936 18.5563C12.5049 19.0667 12.8205 19.772 12.8205 20.5512V26.5673C12.8205 26.9659 13.1225 27.2982 13.519 27.3394C15.0861 27.502 17.8152 28.7617 18.9973 31.9139" stroke="#284268" stroke-width="1.5" stroke-linecap="round" stroke-linejoin="round"/>
<g clip-path="url(#clip0)">
<path d="M22.4087 19.7606L21.5491 19.197L21.5968 15.9561L20.7849 15.9561L20.7849 15.0637L21.5968 15.0637L21.5968 14.1244C21.5968 13.8425 21.5491 13.7016 21.4058 13.7016C21.3103 13.7016 21.167 13.7956 21.0237 13.9365L20.5461 13.232C20.8804 12.8562 21.167 12.6683 21.4536 12.6683C22.2177 12.6683 22.6475 13.185 22.6475 14.2183C22.6475 14.641 22.6475 14.9228 22.5998 15.0637L23.3162 15.0637L23.3162 15.9092L22.552 15.9092L22.552 18.6333C23.746 18.3046 24.3191 17.8349 24.3191 17.3182C24.3191 17.0834 24.2236 16.9894 24.0326 16.9894C23.9848 16.9894 23.7938 17.0834 23.555 17.3182L22.9818 16.6607C23.1729 16.191 23.555 15.9561 24.0803 15.9561C24.4146 15.9561 24.7012 16.097 24.94 16.3319C25.1788 16.6137 25.2743 16.8955 25.2743 17.2712C25.2743 18.3985 24.3191 19.197 22.4087 19.7606Z" fill="white"/>
</g>
<path d="M31.0553 48.3029V32.8353L33.1573 29.9014C33.9144 28.8461 34.3562 27.6011 34.4366 26.3102M13.1835 48.3029V37.874" stroke="#284268" stroke-width="1.5" stroke-linecap="round"/>
<circle cx="20.4771" cy="33.6039" r="0.429042" fill="#284268"/>
<circle cx="43.987" cy="6.98702" r="6.98702" fill="#EA0810"/>
<path d="M44.5126 4.07379H43.4837L42 5.02177V6.00745L43.3962 5.12034H43.4312V10.011H44.5126V4.07379Z" fill="white"/>
<defs>
<clipPath id="clip0">
<rect width="7.09224" height="4.72816" fill="white" transform="translate(25.2743 12.6683) rotate(90)"/>
</clipPath>
</defs>
</svg>
