<svg width="66" height="66" viewBox="0 0 66 66" fill="none" xmlns="http://www.w3.org/2000/svg">
<circle cx="34.1586" cy="32.9631" r="23.1586" fill="#CCF0FF"/>
<path d="M25.0907 31.3212H23.4901V29.4708L25.0907 28.6705V31.3212Z" fill="#09607D"/>
<path d="M45.2716 31.3212H43.671V28.6705L45.2716 29.4708V31.3212Z" fill="#09607D"/>
<path d="M25.0907 42.6154H23.4901V40.765L25.0907 39.9647V42.6154Z" fill="#09607D"/>
<path d="M45.2716 42.6154H43.671V39.9647L45.2716 40.765V42.6154Z" fill="#09607D"/>
<path d="M31.8966 30.6026L33.2489 31.9549L31.8966 33.3072V30.6026ZM29.8433 47.0865L30.7785 41.7224L33.2144 44.4272L29.8433 47.0865ZM32.0703 40.7649H34.3808V39.1642H31.2244L31.7691 36.0398H34.3808V34.4391H33.0285L34.3808 33.0868L35.1811 31.9549L34.3808 30.823L31.8966 28.3388V24.0914L34.0459 18.4021C34.122 18.2006 34.2884 18.1705 34.3808 18.1705L35.1811 17.4422L34.3808 16.5699C33.5584 16.5699 32.8391 17.067 32.5485 17.8364L30.3476 23.6624L30.2959 23.9452V35.17L27.7733 49.6397H29.1909L34.3808 45.5458L35.1811 44.4044L34.3808 43.3305L32.0703 40.7649Z" fill="#09607D"/>
<path d="M38.4657 35.1703V23.9454L38.414 23.6626L36.2131 17.8366C35.9224 17.0673 35.2033 16.5701 34.3808 16.5701V18.1707C34.4732 18.1707 34.6396 18.2008 34.7157 18.4024L36.865 24.0916V28.339L34.3808 30.8232V33.0869L35.7332 34.4392H34.3808V36.0399H36.9925L37.5372 39.1644H34.3808V40.765H36.6914L34.3808 43.3306V45.546L39.5707 49.6399H40.9883L38.4657 35.1703ZM36.8651 33.3074L35.5127 31.9551L36.8651 30.6028V33.3074ZM35.5472 44.4273L37.9832 41.7224L38.9184 47.0866L35.5472 44.4273Z" fill="#09607D"/>
<path d="M30.4875 34.6756L23.4901 39.0225V40.765H34.3809L35.1812 40.1413L34.3809 39.1643H26.295L30.9441 36.2762C31.1928 36.1217 31.4798 36.0399 31.7725 36.0399H34.3809L35.1812 35.1577L34.3809 34.4392H31.3159C31.1702 34.4392 31.0253 34.4595 30.8851 34.4995C30.7451 34.5395 30.6113 34.5987 30.4875 34.6756Z" fill="#09607D"/>
<path d="M26.295 27.8702L30.9441 24.982C31.1928 24.8276 31.4798 24.7457 31.7725 24.7457H34.3809L35.1812 24.0613L34.3809 23.1451H31.3159C31.1702 23.1451 31.0253 23.1653 30.8851 23.2053C30.7451 23.2453 30.6113 23.3046 30.4875 23.3814L23.4901 27.7283V29.4707H34.3809L35.1812 28.6704L34.3809 27.8701H26.295V27.8702Z" fill="#09607D"/>
<path d="M45.2716 27.7283L38.2742 23.3814C38.1504 23.3046 38.0166 23.2453 37.8766 23.2053C37.7364 23.1653 37.5914 23.1451 37.4457 23.1451H34.3808V24.7457H36.9891C37.2818 24.7457 37.5688 24.8276 37.8175 24.9821L42.4666 27.8702H34.3808V29.4708H45.2716V27.7283Z" fill="#09607D"/>
<path d="M37.8175 36.2763L42.4666 39.1645H34.3808V40.7651H45.2716V39.0226L38.2742 34.6758C38.1504 34.5989 38.0166 34.5396 37.8766 34.4997C37.7364 34.4597 37.5914 34.4394 37.4457 34.4394H34.3808V36.0401H36.9891C37.2818 36.0399 37.5688 36.1218 37.8175 36.2763Z" fill="#09607D"/>
<path d="M10.4156 25.2209C8.4163 31.0442 8.65987 37.6343 11.619 43.5821C17.4838 55.3701 31.7941 60.1719 43.5821 54.3072C55.3701 48.4424 60.1719 34.1321 54.3072 22.3441C48.4425 10.5561 34.1321 5.7543 22.3441 11.619C19.892 12.839 17.7423 14.4243 15.9279 16.2764M11.8144 21.9566C12.065 21.474 12.3323 20.9995 12.6161 20.5341" stroke="#2D3192" stroke-width="1.3" stroke-linecap="round"/>
</svg>
