<svg width="44" height="44" viewBox="0 0 44 44" fill="none" xmlns="http://www.w3.org/2000/svg">
<path d="M40.0271 32.2273L38.4843 34.2843C34.6016 39.427 28.3704 42.5983 21.9421 42.5983C15.5138 42.5983 9.28251 39.427 5.3998 34.2843L3.85706 32.2273H40.0271Z" fill="#0088FF"/>
<path d="M2.75134 32.2273C2.75134 32.4586 2.8284 32.6901 2.93134 32.8701C6.81405 39.607 14.1508 43.884 21.942 43.884C29.7333 43.884 37.07 39.607 40.9527 32.8701C41.0557 32.6901 41.1327 32.4586 41.1327 32.2273H2.75134ZM6.42834 33.5129H11.0396C11.9138 35.9299 13.0196 37.987 14.3308 39.6069C11.271 38.2955 8.45965 36.2128 6.42834 33.5129ZM20.6563 41.1583C17.9565 40.4898 15.4621 37.6527 13.7652 33.5129H20.6563V41.1583ZM23.2277 41.1583V33.5129H30.1189C28.4219 37.6527 25.9276 40.4898 23.2277 41.1583ZM29.5533 39.607C30.8645 37.987 31.9703 35.93 32.8445 33.513H37.4557C35.4244 36.2128 32.6131 38.2955 29.5533 39.607Z" fill="#00A5FF"/>
<path d="M21.9419 32.2273H40.0269L38.4841 34.2843C34.6014 39.427 28.3702 42.5983 21.9419 42.5983V32.2273Z" fill="#136EF1"/>
<path d="M21.942 32.2273V43.884C29.7332 43.884 37.0699 39.607 40.9527 32.8702C41.0557 32.6902 41.1327 32.4587 41.1327 32.2273H21.942ZM23.2277 41.1584V33.5129H30.1189C28.4218 37.6527 25.9276 40.4898 23.2277 41.1584ZM29.5532 39.607C30.8645 37.9871 31.9703 35.93 32.8444 33.513H37.4557C35.4244 36.2128 32.6131 38.2955 29.5532 39.607Z" fill="#0088FF"/>
<path d="M40.0271 11.6566H3.85706L5.3998 9.5996C9.28251 4.45691 15.5138 1.28561 21.9421 1.28561C28.3704 1.28561 34.6016 4.45691 38.4843 9.5996L40.0271 11.6566Z" fill="#0088FF"/>
<path d="M40.9528 11.0139C37.07 4.27691 29.7333 0 21.942 0C14.1508 0 6.81414 4.27691 2.93134 11.0139C2.8284 11.1939 2.75134 11.4252 2.75134 11.6567H41.1327C41.1328 11.4251 41.0557 11.1938 40.9528 11.0139ZM6.42834 10.371C8.45957 7.67114 11.271 5.5026 14.3308 4.19128C13.0196 5.81125 11.9138 7.95399 11.0396 10.371H6.42834ZM20.6564 10.371H13.7652C15.4622 6.23116 17.9565 3.39415 20.6564 2.72559V10.371ZM23.2277 10.371V2.72559C25.9276 3.39415 28.4219 6.23125 30.1189 10.371H23.2277ZM32.8445 10.371C31.9703 7.95399 30.8645 5.81117 29.5533 4.19128C32.6131 5.50269 35.4244 7.67114 37.4557 10.371H32.8445Z" fill="#00A5FF"/>
<path d="M40.0269 11.6566H21.9419V1.28561C28.3702 1.28561 34.6014 4.45691 38.4841 9.5996L40.0269 11.6566Z" fill="#136EF1"/>
<path d="M40.9526 11.0139C37.0699 4.27691 29.7331 0 21.9419 0V11.6567H41.1326C41.1326 11.4251 41.0555 11.1938 40.9526 11.0139ZM23.2276 10.371V2.72559C25.9275 3.39415 28.4218 6.23125 30.1187 10.371H23.2276ZM32.8443 10.371C31.9701 7.95399 30.8644 5.81117 29.5531 4.19128C32.613 5.50269 35.4243 7.67114 37.4556 10.371H32.8443Z" fill="#0088FF"/>
<path d="M43.8842 11.6566C43.8842 12.3765 43.3186 12.9423 42.5985 12.9423H1.28594C0.565864 12.9423 0.000244141 12.3765 0.000244141 11.6566C0.000244141 10.9365 0.565864 10.3709 1.28594 10.3709H42.5986C43.3186 10.371 43.8842 10.9366 43.8842 11.6566Z" fill="#FD003A"/>
<path d="M43.884 32.2273C43.884 32.9472 43.3184 33.513 42.5983 33.513H1.28569C0.56562 33.513 0 32.9472 0 32.2273C0 31.5072 0.56562 30.9416 1.28569 30.9416H42.5984C43.3184 30.9416 43.884 31.5072 43.884 32.2273Z" fill="#FD003A"/>
<path d="M5.27845 27.6597L2.57155 22.2458V27.0846C2.57155 28.7794 0.000244141 28.7863 0.000244141 27.0846V16.7993C0.000244141 15.4448 1.83382 15.0171 2.43595 16.2243L5.14285 21.6381V16.7993C5.14285 15.1045 7.71415 15.0976 7.71415 16.7993V27.0846C7.71415 28.4474 5.87904 28.8644 5.27845 27.6597Z" fill="#FD003A"/>
<path d="M16.7994 23.2276C18.4942 23.2276 18.5011 20.6563 16.7994 20.6563H12.9424V18.085H16.7994C18.4942 18.085 18.5011 15.5137 16.7994 15.5137H11.6567C10.946 15.5137 10.371 16.0887 10.371 16.7994V27.0847C10.371 27.7953 10.946 28.3704 11.6567 28.3704H16.7994C18.4942 28.3704 18.5011 25.7991 16.7994 25.7991H12.9424V23.2278H16.7994V23.2276Z" fill="#FD003A"/>
<path d="M33.4874 17.1079L30.9161 27.3932C30.6075 28.5503 29.0391 28.7304 28.4991 27.6502L27.0848 24.8219L25.6705 27.6502C25.1304 28.7303 23.5621 28.5503 23.2535 27.3932L20.6822 17.1079C20.4507 16.1565 21.1965 15.5393 21.9422 15.5136C22.4823 15.5136 23.0221 15.7965 23.2022 16.4907L24.9249 23.4076L25.9277 21.3762C26.3648 20.502 27.8049 20.502 28.242 21.3762L29.2448 23.4076L30.9676 16.4907C31.3787 14.845 33.8731 15.4621 33.4874 17.1079Z" fill="#FD003A"/>
<path d="M40.0269 20.6563C39.3136 20.6563 38.7413 20.0782 38.7413 19.3706C38.7413 17.6785 41.3126 17.6785 41.3126 19.3706C41.3126 20.0812 41.8876 20.6563 42.5983 20.6563C43.3089 20.6563 43.8839 20.0812 43.8839 19.3706C43.8839 18.341 43.4821 17.3719 42.7565 16.6448C41.3 15.1859 38.7513 15.1871 37.3 16.6435C34.8619 19.0817 36.6186 23.2275 40.0269 23.2275C40.7403 23.2275 41.3126 23.8056 41.3126 24.5132C41.3126 26.2059 38.7413 26.2059 38.7413 24.5132C38.7413 22.8184 36.17 22.8115 36.17 24.5132C36.17 25.5428 36.5719 26.5119 37.2975 27.239C38.8075 28.7516 41.2515 28.748 42.754 27.2402C44.264 25.7301 44.2591 23.2926 42.7565 21.7874C42.0283 21.058 41.059 20.6563 40.0269 20.6563Z" fill="#E50027"/>
<path d="M43.8839 32.2273C43.8839 32.9472 43.3183 33.513 42.5982 33.513H21.9419V30.9417H42.5982C43.3183 30.9416 43.8839 31.5072 43.8839 32.2273Z" fill="#E50027"/>
<path d="M42.5987 12.9423H21.9424V10.371H42.5987C43.3188 10.371 43.8844 10.9366 43.8844 11.6567C43.8844 12.3765 43.3188 12.9423 42.5987 12.9423Z" fill="#E50027"/>
<path d="M33.4872 17.1079L30.9159 27.3932C30.6073 28.5503 29.0389 28.7304 28.4988 27.6502L27.0846 24.8219L25.6703 27.6502C25.1302 28.7303 23.5619 28.5503 23.2533 27.3932L21.9419 22.1474V15.5135C22.482 15.5135 23.0218 15.7964 23.2019 16.4906L24.9246 23.4075L25.9275 21.3761C26.3645 20.5019 27.8046 20.5019 28.2417 21.3761L29.2445 23.4075L30.9673 16.4906C31.3785 14.845 33.8729 15.4621 33.4872 17.1079Z" fill="#E50027"/>
</svg>
