<svg width="49" height="49" viewBox="0 0 49 49" fill="none" xmlns="http://www.w3.org/2000/svg">
<circle cx="23.5" cy="23.5" r="22.5" fill="#DDF7FF"/>
<path d="M41.2332 8C36.9717 3.67863 31.0487 1 24.5 1C11.5213 1 1 11.5213 1 24.5C1 37.4787 11.5213 48 24.5 48C37.4787 48 48 37.4787 48 24.5C48 21.8003 47.5447 19.2069 46.7068 16.7924M43.5 10.6679C43.8158 11.101 44.1172 11.5452 44.4034 12" stroke="#2D3192" stroke-width="1.3" stroke-linecap="round"/>
<path d="M24.658 41.1559C24.6961 41.1179 24.7341 41.0925 24.7595 41.0672C25.0891 40.7757 25.4315 40.4841 25.7612 40.1926C26.2176 39.787 26.6868 39.394 27.1432 38.9884C27.2066 38.9377 27.232 38.8743 27.2193 38.7983C27.2066 38.7095 27.1939 38.6208 27.1813 38.5321C27.0798 37.8603 26.9784 37.1885 26.8896 36.504C26.8009 35.8829 26.7121 35.2491 26.6107 34.628C26.5092 33.9562 26.4205 33.2844 26.319 32.6126C26.2303 32.0295 26.1415 31.4338 26.0655 30.8507C25.9767 30.2676 25.9006 29.6719 25.8119 29.0888C25.7358 28.5438 25.6597 28.0114 25.571 27.4663C25.5456 27.3016 25.4949 27.2635 25.3427 27.2635C24.8482 27.2635 24.3664 27.2635 23.8719 27.2635C23.6944 27.2635 23.6437 27.3016 23.6183 27.479C23.4915 28.3536 23.3647 29.2282 23.2379 30.1029C23.0858 31.1803 22.9209 32.245 22.7688 33.3224C22.642 34.2351 22.5025 35.1477 22.3757 36.0604C22.2489 36.973 22.1095 37.873 21.9827 38.7856C21.97 38.8617 21.9953 38.925 22.0587 38.9757C22.8829 39.6982 23.7071 40.4081 24.5439 41.1306C24.5059 41.1306 24.4678 41.1306 24.4298 41.1306L24.658 41.1559ZM24.5946 26.972C24.8609 26.972 25.1272 26.972 25.3934 26.972C25.5076 26.972 25.5583 26.934 25.5963 26.8326C25.6724 26.6044 25.7612 26.3636 25.8372 26.1354C25.8626 26.0467 25.8499 25.9833 25.7992 25.9073C25.4695 25.5397 25.1399 25.1721 24.8229 24.7918C24.7088 24.6651 24.5059 24.6651 24.4044 24.7918C24.0748 25.1594 23.7451 25.5397 23.4281 25.9073C23.3647 25.9706 23.352 26.0467 23.3901 26.1354C23.4662 26.3636 23.5549 26.5917 23.631 26.8199C23.669 26.934 23.7198 26.972 23.8465 26.972C24.0748 26.972 24.341 26.972 24.5946 26.972Z" fill="#2279BE"/>
<path d="M24.4298 41.1559C24.4678 41.1559 24.4932 41.1559 24.5439 41.1559C23.7071 40.4334 22.8829 39.7109 22.0587 39.0011C21.9953 38.9504 21.97 38.887 21.9827 38.8109C22.1095 37.8983 22.2489 36.9983 22.3757 36.0857C22.5025 35.1731 22.642 34.2604 22.7688 33.3478C22.9209 32.2704 23.0858 31.2056 23.2379 30.1282C23.3647 29.2536 23.4915 28.379 23.6183 27.5044C23.6437 27.3269 23.6817 27.2889 23.8719 27.2889C24.3664 27.2889 24.8482 27.2889 25.3427 27.2889C25.5076 27.2889 25.5583 27.3269 25.571 27.4917C25.647 28.0367 25.7231 28.5691 25.8119 29.1142C25.9006 29.6972 25.9767 30.293 26.0655 30.8761C26.1542 31.4591 26.243 32.0549 26.319 32.638C26.4205 33.3098 26.5092 33.9816 26.6107 34.6534C26.6994 35.2745 26.7882 35.9082 26.8896 36.5293C26.9911 37.2011 27.0798 37.8729 27.1813 38.5574C27.1939 38.6461 27.2066 38.7349 27.2193 38.8236C27.232 38.8997 27.1939 38.963 27.1432 39.0137C26.6868 39.4194 26.2176 39.8123 25.7612 40.2179C25.4315 40.5095 25.0891 40.801 24.7595 41.0925C24.7341 41.1179 24.6961 41.1432 24.658 41.1813" fill="#2279BE"/>
<path d="M24.5946 26.972C24.3411 26.972 24.0748 26.972 23.8212 26.972C23.7071 26.972 23.6564 26.934 23.6056 26.8199C23.5296 26.5917 23.4535 26.3636 23.3647 26.1354C23.3394 26.0467 23.3521 25.9833 23.4028 25.9073C23.7324 25.5397 24.0621 25.1721 24.3791 24.7918C24.4805 24.6651 24.6961 24.6651 24.7975 24.7918C25.1272 25.1594 25.4568 25.527 25.7738 25.9073C25.8372 25.9706 25.8499 26.0467 25.8119 26.1354C25.7358 26.3636 25.647 26.6044 25.571 26.8326C25.5329 26.934 25.4822 26.972 25.3681 26.972C25.1272 26.972 24.8609 26.972 24.5946 26.972Z" fill="#2279BE"/>
<path d="M23.1746 32.8341C22.642 31.237 22.2236 29.6272 21.7798 28.0174C21.336 26.4203 20.8542 24.8232 20.3978 23.2134C20.1949 23.2767 20.1188 23.2894 20.0554 23.3148C17.8999 24.2528 15.7444 25.1907 13.6016 26.1414C12.8027 26.4963 12.042 27.0033 11.7503 27.8399C11.2558 29.1962 10.9515 30.5905 11.0149 32.0609C11.091 33.9242 11.0276 35.7875 11.0276 37.6381C11.0276 37.8409 11.0276 38.0311 11.0276 38.2592C11.0276 38.2592 12.8154 39.8183 15.7951 41.0985C20.8669 43.2787 29.3748 44.8885 38.1364 38.2592C38.1364 38.0437 38.1364 37.8409 38.1364 37.6381C38.1364 35.9269 38.0983 34.203 38.1491 32.4918C38.1998 31.0342 37.9842 29.6399 37.5912 28.2455C37.3376 27.3456 36.7543 26.7625 36.0062 26.3822C34.6115 25.6851 33.1787 25.064 31.7459 24.4302C30.7949 24.0119 29.8313 23.6063 28.7409 23.15C27.8406 26.4203 26.9531 29.6145 26.0655 32.8087L23.1746 32.8341ZM24.8483 25.2541C25.7232 24.6203 27.194 23.5683 28.0562 22.8965C28.221 22.7697 28.3098 22.4655 28.3224 22.25C28.3605 21.2487 28.3098 20.2853 28.8296 19.322C29.2861 18.5107 29.6158 17.6615 30.3131 16.9897C30.8457 16.47 30.871 15.6968 30.7696 14.9743C30.7316 14.7588 30.6174 14.556 30.6174 14.3405C30.5794 13.0729 30.6935 11.8181 30.3512 10.5632C29.7679 8.49708 28.5887 7.16615 26.7122 6.38027C26.0401 6.1014 25.0892 6.01268 24.3538 6C22.0968 6.0507 20.6514 7.07742 19.4848 9.01677C19.4341 9.13085 19.3961 9.21958 19.3327 9.30831C18.4451 10.9054 18.5085 12.6293 18.5719 14.3658C18.5719 14.4926 18.61 14.6194 18.5592 14.7208C18.2042 15.5066 18.3564 16.5334 18.9903 17.1291C19.4975 17.5981 19.8272 18.1558 20.1188 18.7896C20.6514 19.9431 20.981 21.1092 20.8542 22.3895C20.8415 22.5542 21.0064 22.7951 21.1459 22.9091C22.1475 23.657 23.3267 24.4809 24.3411 25.2161" fill="#2279BE"/>
</svg>
