<svg width="49" height="40" viewBox="0 0 49 40" fill="none" xmlns="http://www.w3.org/2000/svg">
<path d="M24.1882 39.4195C33.9346 39.4195 41.8356 31.4945 41.8356 21.7187C41.8356 11.9428 33.9346 4.01785 24.1882 4.01785C14.4418 4.01785 6.54077 11.9428 6.54077 21.7187C6.54077 31.4945 14.4418 39.4195 24.1882 39.4195Z" fill="white"/>
<path d="M5.97327 21.73C5.97327 31.8041 14.1444 40 24.1881 40C32.0065 40 38.6902 35.0267 41.2681 28.071C41.2063 27.8235 41.2681 27.7578 40.9836 27.5664C40.6991 27.3749 40.4386 27.4204 40.2677 27.5C37.8986 34.1111 31.5858 38.8503 24.1881 38.8503C14.7686 38.8503 7.10815 31.1667 7.10815 21.7187C7.10815 12.2706 14.7686 4.58702 24.1881 4.58702C33.6076 4.58702 41.2681 12.2706 41.2681 21.7187C41.2681 22.9449 41.139 24.1413 40.8939 25.2952C40.8939 25.2952 41.0388 25.9346 41.4999 26C41.961 26.0654 42.0108 25.5 42.0108 25.5C42.2678 24.2794 42.403 23.0145 42.403 21.7187C42.403 11.6446 34.2318 3.4487 24.1881 3.4487C14.1444 3.4487 5.97327 11.656 5.97327 21.73Z" fill="#2D3192"/>
<path d="M24.189 37.1893C32.7069 37.1893 39.6121 30.2633 39.6121 21.7196C39.6121 13.1759 32.7069 6.24991 24.189 6.24991C15.6711 6.24991 8.76599 13.1759 8.76599 21.7196C8.76599 30.2633 15.6711 37.1893 24.189 37.1893Z" fill="#2D3192"/>
<path d="M24.188 37.2567C15.6537 37.2567 8.70825 30.2902 8.70825 21.73C8.70825 13.1699 15.6537 6.20343 24.188 6.20343C32.7223 6.20343 39.6678 13.1699 39.6678 21.73C39.6678 30.2902 32.7223 37.2567 24.188 37.2567ZM24.188 6.30588C15.7105 6.30588 8.82174 13.2268 8.82174 21.7187C8.82174 30.2219 15.7218 37.1315 24.188 37.1315C32.6542 37.1315 39.5543 30.2105 39.5543 21.7187C39.5543 13.2268 32.6656 6.30588 24.188 6.30588Z" fill="white"/>
<path d="M45.4727 10.0782L0 23.5834L2.89007 33.3734L48.3628 19.8682L45.4727 10.0782Z" fill="#2D3192"/>
<path d="M4.21417 26.2947C4.30496 25.8621 4.50924 25.4979 4.80431 25.1791C5.11073 24.8604 5.48524 24.6441 5.95054 24.5075C6.51798 24.3368 7.04002 24.3482 7.52802 24.5303C8.01602 24.7124 8.40188 25.0425 8.69695 25.5092L7.42588 25.8735C7.267 25.7027 7.09677 25.5889 6.89249 25.5434C6.68821 25.4865 6.47258 25.4979 6.25696 25.5662C5.90514 25.6686 5.64412 25.8849 5.49659 26.1922C5.34905 26.511 5.3377 26.8752 5.46254 27.285C5.58738 27.7062 5.79165 28.0021 6.08672 28.1843C6.38179 28.3664 6.71091 28.4006 7.06272 28.2981C7.27835 28.2298 7.45993 28.1274 7.60746 27.968C7.755 27.8086 7.83444 27.6265 7.87984 27.3988L9.1509 27.0232C9.16225 27.581 9.01472 28.0704 8.7083 28.4802C8.39053 28.9014 7.95928 29.186 7.39184 29.3567C6.92654 29.4933 6.49528 29.5161 6.06403 29.4137C5.64412 29.3112 5.26961 29.1177 4.96319 28.8103C4.65677 28.503 4.4298 28.116 4.29361 27.6493C4.14608 27.1712 4.12338 26.7158 4.21417 26.2947Z" fill="white"/>
<path d="M11.2846 27.8656C10.8534 27.7631 10.4675 27.5696 10.1384 27.2623C9.80926 26.9549 9.57094 26.5679 9.43475 26.1012C9.29856 25.6345 9.28722 25.1791 9.38935 24.7466C9.50284 24.314 9.70712 23.9384 10.0135 23.6196C10.32 23.3009 10.7058 23.0733 11.1484 22.948C11.591 22.8114 12.0336 22.8001 12.4649 22.8911C12.8961 22.9936 13.282 23.1871 13.5998 23.4944C13.9289 23.8018 14.1559 24.1888 14.292 24.6555C14.4282 25.1222 14.4396 25.5775 14.3374 26.0101C14.2353 26.4427 14.0197 26.8297 13.7133 27.1484C13.4068 27.4671 13.0323 27.6948 12.5784 27.82C12.1585 27.9452 11.7159 27.968 11.2846 27.8656ZM13.0891 26.1126C13.2366 25.7938 13.2593 25.4182 13.1345 25.0084C13.0096 24.5872 12.794 24.2912 12.4989 24.0977C12.1925 23.9156 11.852 23.8815 11.4775 23.9953C11.0917 24.1091 10.8307 24.3254 10.6718 24.6441C10.5129 24.9629 10.5015 25.3271 10.6264 25.7597C10.7512 26.1809 10.9668 26.4768 11.2619 26.6703C11.5683 26.8525 11.9088 26.8866 12.2947 26.7728C12.6692 26.6476 12.9302 26.4313 13.0891 26.1126Z" fill="white"/>
<path d="M19.6262 20.5007L21.0334 25.2588L19.8758 25.6003L19.036 22.7432L18.8204 25.9191L17.8898 26.1922L15.9718 23.6424L16.8117 26.511L15.6541 26.8525L14.2468 22.0943L15.6087 21.6845L17.9125 24.5872L18.253 20.8991L19.6262 20.5007Z" fill="white"/>
<path d="M24.5625 21.5251C24.5057 21.787 24.3696 22.0374 24.1426 22.2537C23.927 22.4699 23.6205 22.6407 23.2347 22.7545L22.5197 22.9708L23.0191 24.6783L21.8615 25.0198L20.4542 20.2616L22.3268 19.7038C22.7013 19.59 23.0418 19.5672 23.3482 19.6128C23.6432 19.6697 23.8929 19.7835 24.0972 19.977C24.3015 20.1706 24.4377 20.4096 24.5284 20.7169C24.6192 20.9901 24.6192 21.252 24.5625 21.5251ZM23.3255 21.5479C23.4049 21.4113 23.4163 21.252 23.3595 21.0584C23.3028 20.8649 23.2006 20.7397 23.0644 20.66C22.9283 20.5917 22.7467 20.5803 22.5197 20.6486L21.8955 20.8308L22.2473 22.026L22.8715 21.8439C23.0985 21.787 23.246 21.6845 23.3255 21.5479Z" fill="white"/>
<path d="M26.9798 22.5155L28.5006 22.0601L28.7616 22.9594L26.0946 23.7562L24.6874 18.9981L25.845 18.6566L26.9798 22.5155Z" fill="white"/>
<path d="M32.0189 21.0812L30.2485 21.6048L30.2144 22.5269L29.0001 22.8911L29.3065 17.6207L30.6457 17.2223L33.7666 21.4796L32.541 21.8439L32.0189 21.0812ZM31.4628 20.273L30.362 18.7021L30.2939 20.6145L31.4628 20.273Z" fill="white"/>
<path d="M34.0503 16.2092L35.4575 20.9674L34.3 21.3089L32.8927 16.5507L34.0503 16.2092Z" fill="white"/>
<path d="M40.5419 19.4648L39.3843 19.8063L36.5811 17.45L37.4436 20.3868L36.286 20.7283L34.8901 15.9702L36.0477 15.6287L38.8509 18.0077L37.977 15.0595L39.1346 14.718L40.5419 19.4648Z" fill="white"/>
<path d="M43.39 13.4431L43.6624 14.3765L42.4027 14.7522L43.5376 18.5883L42.38 18.9298L41.2451 15.0937L39.9854 15.4693L39.713 14.5359L43.39 13.4431Z" fill="white"/>
<circle cx="35.7116" cy="6.98702" r="6.98702" fill="#EA0810"/>
<path d="M34.2317 4.07376H33.2028L31.7191 5.02174V6.00741L33.1153 5.12031H33.1503V10.011H34.2317V4.07376Z" fill="white"/>
<path d="M37.4044 10.124C38.8444 10.1269 39.7043 8.99632 39.7043 7.04817C39.7043 5.11161 38.8386 3.99258 37.4044 3.99258C35.9703 3.99258 35.1075 5.10871 35.1046 7.04817C35.1046 8.99342 35.9645 10.124 37.4044 10.124ZM37.4044 9.21665C36.6611 9.21665 36.1948 8.47449 36.1977 7.04817C36.2006 5.63344 36.6641 4.88839 37.4044 4.88839C38.1477 4.88839 38.6112 5.63344 38.6141 7.04817C38.6141 8.47449 38.1507 9.21665 37.4044 9.21665Z" fill="white"/>
</svg>
