<svg width="48" height="50" viewBox="0 0 48 50" fill="none" xmlns="http://www.w3.org/2000/svg">
<path d="M23.7621 6.31652C29.8681 6.37668 34.9815 10.0764 36.5456 15.6259C37.5532 19.1902 37.0419 22.544 34.801 25.5218C33.7633 26.9205 32.4699 28.1236 31.3269 29.4471C30.4547 30.4697 29.5072 31.4623 28.8304 32.6053C28.3642 33.4024 28.1386 34.4251 28.0634 35.3726C27.898 37.7037 26.1835 39.5084 23.9276 39.4934C21.6566 39.4783 19.9421 37.6886 19.9271 35.3124C19.897 31.0262 21.8371 27.6123 24.6795 24.6194C25.6872 23.5516 26.8151 22.5891 27.8829 21.5815C28.8304 20.6791 29.071 19.6113 28.7402 18.3631C28.0784 15.8816 25.6872 14.1821 23.2057 14.4378C20.4986 14.7235 18.5134 16.8591 18.4382 19.5662C18.378 21.4912 17.3253 22.9952 15.5506 23.5065C13.9565 23.9727 12.3473 23.5667 11.2343 22.168C10.4072 21.1303 10.2718 19.867 10.3621 18.6037C10.8884 11.6705 16.8139 6.25636 23.7621 6.31652Z" fill="#136EF1"/>
<path d="M23.8675 49.9156C21.4913 49.9006 19.5813 47.9906 19.5662 45.6144C19.5512 43.2231 21.4913 41.268 23.8976 41.268C26.334 41.268 28.2289 43.178 28.2289 45.5993C28.2289 48.0207 26.3039 49.9156 23.8675 49.9156Z" fill="#E50027"/>
<path d="M16.2275 46.231C16.1222 46.231 16.032 46.216 15.9267 46.1859C15.4755 46.0355 15.0243 45.855 14.5882 45.6745C5.73 41.9598 0 33.3573 0 23.7472C0 10.6479 10.6479 0 23.7472 0C36.8464 0 47.4943 10.6479 47.4943 23.7472C47.4943 28.5597 46.0656 33.1919 43.3585 37.1472C40.7116 41.0123 37.0269 43.9751 32.7106 45.7497C32.3798 45.8851 32.0489 46.0054 31.718 46.1257C31.2518 46.2912 30.7254 46.0505 30.56 45.5843C30.3946 45.1181 30.6352 44.5917 31.1014 44.4263C31.4022 44.321 31.718 44.2007 32.0188 44.0804C40.3205 40.6965 45.6746 32.7106 45.6746 23.7472C45.6896 11.6555 35.8388 1.80472 23.7472 1.80472C11.6555 1.80472 1.80472 11.6555 1.80472 23.7472C1.80472 32.6354 7.09858 40.5762 15.295 44.0052C15.7011 44.1706 16.1222 44.336 16.5283 44.4714C16.9945 44.6368 17.2502 45.1482 17.0847 45.6144C16.9494 45.9904 16.6035 46.231 16.2275 46.231Z" fill="#136EF1"/>
</svg>
