<svg width="42" height="44" viewBox="0 0 42 44" fill="none" xmlns="http://www.w3.org/2000/svg">
<path d="M29.1701 5.1894H3.12584C2.78355 5.18698 2.4442 5.25263 2.12751 5.38256C1.81083 5.51248 1.52314 5.70408 1.28118 5.9462C1.03922 6.18833 0.847817 6.47614 0.718106 6.79291C0.588396 7.10969 0.522966 7.44909 0.525623 7.79138V40.8461C0.522466 41.1898 0.587362 41.5307 0.716571 41.8491C0.84578 42.1676 1.03674 42.4573 1.27846 42.7017C1.52017 42.946 1.80785 43.14 2.12492 43.2727C2.44198 43.4053 2.78216 43.4738 3.12584 43.4743H29.1701C29.8676 43.4745 30.5365 43.1978 31.03 42.705C31.5235 42.2121 31.8011 41.5435 31.8019 40.8461V7.79138C31.801 7.44742 31.7321 7.10703 31.5992 6.7898C31.4662 6.47257 31.2719 6.18476 31.0273 5.94293C30.7827 5.70111 30.4927 5.51003 30.1739 5.38071C29.8552 5.25139 29.5141 5.18637 29.1701 5.1894Z" fill="#CAE6EE"/>
<path d="M40.405 21.9638C39.8934 21.4526 39.1999 21.1652 38.4766 21.1649C37.7534 21.1646 37.0596 21.4513 36.5476 21.9621L34.7568 23.7502L34.7603 23.7537L38.6151 27.6084L38.6186 27.6119L40.4067 25.8203C40.9175 25.3085 41.2043 24.6148 41.204 23.8917C41.2036 23.1686 40.9163 22.4752 40.405 21.9638Z" fill="#6994FF"/>
<path d="M28.0961 38.1495L24.2211 34.2746L24.2159 34.2728L23.1094 37.3085L25.0604 39.2595L28.0969 38.153L28.0961 38.1495Z" fill="#C79A83"/>
<path d="M25.0604 39.2595L21.9915 40.3774L23.1093 37.3085L25.0604 39.2595Z" fill="#6D7486"/>
<path d="M38.6153 27.6084L36.7019 25.6951L26.1714 36.2247L28.0961 38.1495L28.097 38.153L28.0988 38.1521L38.6188 27.6119L38.6153 27.6084Z" fill="#E87187"/>
<path d="M34.7605 23.7537L34.757 23.7502L24.2168 34.2702L24.2159 34.2728L24.2212 34.2746L26.1714 36.2247L36.7019 25.6951L34.7605 23.7537Z" fill="#F79CAF"/>
<path d="M5.73657 33.1479H11.39V38.8022H5.73657V33.1479Z" fill="#B0C6CC"/>
<path d="M3.15388 40.8461V7.79137C3.15122 7.44908 3.21665 7.10968 3.34636 6.79291C3.47607 6.47614 3.66748 6.18832 3.90944 5.9462C4.1514 5.70407 4.43909 5.51248 4.75577 5.38255C5.07245 5.25263 5.41181 5.18697 5.7541 5.1894H3.12584C2.78355 5.18697 2.4442 5.25263 2.12751 5.38255C1.81083 5.51248 1.52314 5.70407 1.28118 5.9462C1.03922 6.18832 0.847817 6.47614 0.718106 6.79291C0.588396 7.10968 0.522966 7.44908 0.525623 7.79137V40.8461C0.522466 41.1898 0.587362 41.5306 0.716571 41.8491C0.84578 42.1676 1.03674 42.4573 1.27846 42.7016C1.52017 42.946 1.80785 43.14 2.12492 43.2726C2.44198 43.4053 2.78216 43.4738 3.12584 43.4743H5.7541C5.41042 43.4738 5.07024 43.4053 4.75318 43.2726C4.43611 43.14 4.14843 42.946 3.90672 42.7016C3.665 42.4573 3.47404 42.1676 3.34483 41.8491C3.21562 41.5306 3.15072 41.1898 3.15388 40.8461Z" fill="#9AB1B7"/>
<path d="M26.9895 1.35039C26.7385 1.09535 26.4391 0.892885 26.1089 0.7548C25.7788 0.616716 25.4244 0.545784 25.0665 0.546144C24.707 0.546542 24.3512 0.617944 24.0194 0.75625C23.6876 0.894556 23.3864 1.09704 23.133 1.35208C22.8797 1.60712 22.6793 1.90968 22.5432 2.24241C22.4071 2.57513 22.3381 2.93145 22.3401 3.29092V7.46722H27.7719V3.29092C27.7762 2.93181 27.7092 2.57542 27.575 2.24234C27.4407 1.90925 27.2417 1.6061 26.9895 1.35039Z" fill="#A9B6D8"/>
<path d="M7.16987 0.546147C6.45427 0.545867 5.76781 0.829594 5.26123 1.33502C4.75465 1.84045 4.46936 2.52627 4.46802 3.24186V7.46722H9.89975V3.24186C9.89199 2.5234 9.6008 1.83707 9.08956 1.33222C8.57831 0.827375 7.88837 0.544858 7.16987 0.546147Z" fill="#A9B6D8"/>
<path d="M2.97865 9.39461C3.11807 9.39461 3.25177 9.33923 3.35035 9.24065C3.44892 9.14207 3.50431 9.00837 3.50431 8.86896V8.69374C3.50431 8.55433 3.44892 8.42063 3.35035 8.32205C3.25177 8.22347 3.11807 8.16809 2.97865 8.16809C2.83924 8.16809 2.70554 8.22347 2.60696 8.32205C2.50838 8.42063 2.453 8.55433 2.453 8.69374V8.86896C2.453 9.00837 2.50838 9.14207 2.60696 9.24065C2.70554 9.33923 2.83924 9.39461 2.97865 9.39461Z" fill="#284268"/>
<path d="M2.453 18.6811C2.453 18.8205 2.50838 18.9542 2.60696 19.0528C2.70554 19.1514 2.83924 19.2068 2.97865 19.2068C3.11807 19.2068 3.25177 19.1514 3.35035 19.0528C3.44892 18.9542 3.50431 18.8205 3.50431 18.6811V10.6211C3.50431 10.4817 3.44892 10.348 3.35035 10.2494C3.25177 10.1509 3.11807 10.0955 2.97865 10.0955C2.83924 10.0955 2.70554 10.1509 2.60696 10.2494C2.50838 10.348 2.453 10.4817 2.453 10.6211V18.6811Z" fill="#284268"/>
<path d="M5.16895 28.762C5.16895 29.0523 5.44614 29.2818 5.73647 29.2818H11.3901C11.4588 29.2824 11.5269 29.2694 11.5905 29.2436C11.6541 29.2177 11.712 29.1796 11.7608 29.1312C11.8096 29.0829 11.8483 29.0254 11.8748 28.962C11.9012 28.8986 11.9148 28.8306 11.9148 28.762V27.8313C11.9148 27.6919 11.8594 27.5582 11.7608 27.4596C11.6623 27.361 11.5286 27.3057 11.3892 27.3057C11.2497 27.3057 11.116 27.361 11.0175 27.4596C10.9189 27.5582 10.8635 27.6919 10.8635 27.8313V28.2305H6.22025V23.6748H10.403C10.5424 23.6748 10.6761 23.6194 10.7747 23.5208C10.8733 23.4223 10.9287 23.2886 10.9287 23.1492C10.9287 23.0097 10.8733 22.876 10.7747 22.7775C10.6761 22.6789 10.5424 22.6235 10.403 22.6235H5.73647C5.44614 22.6235 5.16895 22.818 5.16895 23.1083V28.762Z" fill="#284268"/>
<path d="M11.5425 24.1446L9.44414 25.904L8.72697 25.1869C8.6783 25.1375 8.62032 25.0982 8.55637 25.0712C8.49243 25.0443 8.42378 25.0303 8.35439 25.03C8.285 25.0297 8.21624 25.0432 8.15209 25.0696C8.08793 25.0961 8.02964 25.1349 7.98058 25.184C7.93152 25.2331 7.89266 25.2914 7.86624 25.3555C7.83982 25.4197 7.82637 25.4885 7.82666 25.5578C7.82696 25.6272 7.84098 25.6959 7.86793 25.7598C7.89489 25.8238 7.93423 25.8817 7.9837 25.9304L9.04114 26.9879C9.1341 27.0809 9.25854 27.1357 9.38991 27.1415C9.52127 27.1472 9.65003 27.1035 9.75077 27.019L12.2184 24.9502C12.3252 24.8607 12.3922 24.7323 12.4044 24.5934C12.4167 24.4545 12.3732 24.3164 12.2837 24.2095C12.1941 24.1027 12.0658 24.0357 11.9268 24.0235C11.7879 24.0112 11.6499 24.0547 11.543 24.1442L11.5425 24.1446Z" fill="#284268"/>
<path d="M14.6781 25.1642H22.5137C22.6532 25.1642 22.7868 25.1088 22.8854 25.0102C22.984 24.9116 23.0394 24.7779 23.0394 24.6385C23.0394 24.4991 22.984 24.3654 22.8854 24.2668C22.7868 24.1682 22.6532 24.1129 22.5137 24.1129H14.6781C14.5387 24.1129 14.405 24.1682 14.3064 24.2668C14.2078 24.3654 14.1525 24.4991 14.1525 24.6385C14.1525 24.7779 14.2078 24.9116 14.3064 25.0102C14.405 25.1088 14.5387 25.1642 14.6781 25.1642Z" fill="#284268"/>
<path d="M14.6781 27.7048H26.5598C26.6992 27.7048 26.8329 27.6494 26.9315 27.5508C27.03 27.4523 27.0854 27.3186 27.0854 27.1792C27.0854 27.0397 27.03 26.906 26.9315 26.8075C26.8329 26.7089 26.6992 26.6535 26.5598 26.6535H14.6781C14.5387 26.6535 14.405 26.7089 14.3064 26.8075C14.2078 26.906 14.1525 27.0397 14.1525 27.1792C14.1525 27.3186 14.2078 27.4523 14.3064 27.5508C14.405 27.6494 14.5387 27.7048 14.6781 27.7048Z" fill="#284268"/>
<path d="M5.16895 38.8311C5.16895 38.9705 5.22433 39.1042 5.32291 39.2028C5.42148 39.3014 5.55519 39.3568 5.6946 39.3568H11.3892C11.5286 39.3568 11.6623 39.3014 11.7608 39.2028C11.8594 39.1042 11.9148 38.9705 11.9148 38.8311V33.1366C11.9148 32.9971 11.8594 32.8634 11.7608 32.7649C11.6623 32.6663 11.5286 32.6109 11.3892 32.6109H5.6946C5.55519 32.6109 5.42148 32.6663 5.32291 32.7649C5.22433 32.8634 5.16895 32.9971 5.16895 33.1366V38.8311ZM6.22025 33.6622H10.8635V38.3055H6.22025V33.6622Z" fill="#284268"/>
<path d="M14.6781 35.2391H22.5137C22.6532 35.2391 22.7868 35.1838 22.8854 35.0852C22.984 34.9866 23.0394 34.8529 23.0394 34.7135C23.0394 34.5741 22.984 34.4404 22.8854 34.3418C22.7868 34.2432 22.6532 34.1878 22.5137 34.1878H14.6781C14.5387 34.1878 14.405 34.2432 14.3064 34.3418C14.2078 34.4404 14.1525 34.5741 14.1525 34.7135C14.1525 34.8529 14.2078 34.9866 14.3064 35.0852C14.405 35.1838 14.5387 35.2391 14.6781 35.2391Z" fill="#284268"/>
<path d="M10.403 12.6361H5.73647C5.58904 12.6427 5.44929 12.7038 5.3444 12.8076C5.23951 12.9114 5.17698 13.0505 5.16895 13.1979V18.8516C5.16895 19.1419 5.44614 19.382 5.73647 19.382H11.3901C11.5299 19.3809 11.6636 19.3244 11.7619 19.2251C11.8602 19.1257 11.9152 18.9914 11.9148 18.8516V17.9209C11.9148 17.7815 11.8594 17.6478 11.7608 17.5492C11.6623 17.4506 11.5286 17.3952 11.3892 17.3952C11.2497 17.3952 11.116 17.4506 11.0175 17.5492C10.9189 17.6478 10.8635 17.7815 10.8635 17.9209V18.3307H6.22025V13.6874H10.403C10.5424 13.6874 10.6761 13.6321 10.7747 13.5335C10.8733 13.4349 10.9287 13.3012 10.9287 13.1618C10.9287 13.0224 10.8733 12.8887 10.7747 12.7901C10.6761 12.6915 10.5424 12.6361 10.403 12.6361Z" fill="#284268"/>
<path d="M12.2828 14.2993C12.1932 14.1925 12.0649 14.1256 11.926 14.1134C11.7871 14.1012 11.6491 14.1447 11.5423 14.2342L9.44425 15.9936L8.72708 15.2766C8.62805 15.1802 8.49507 15.1267 8.35689 15.1277C8.21872 15.1286 8.08648 15.1839 7.98878 15.2816C7.89108 15.3793 7.83578 15.5116 7.83485 15.6498C7.83392 15.7879 7.88743 15.9209 7.98381 16.0199L9.04125 17.0779C9.13419 17.1709 9.25863 17.2257 9.39 17.2315C9.52136 17.2373 9.65013 17.1936 9.75088 17.1091L12.2185 15.0403C12.2714 14.9959 12.315 14.9415 12.3469 14.8802C12.3787 14.8189 12.3982 14.7519 12.4042 14.6831C12.4102 14.6143 12.4025 14.545 12.3817 14.4791C12.3608 14.4133 12.3272 14.3522 12.2828 14.2993Z" fill="#284268"/>
<path d="M14.6781 15.2644H22.5137C22.6532 15.2644 22.7868 15.209 22.8854 15.1104C22.984 15.0118 23.0394 14.8781 23.0394 14.7387C23.0394 14.5993 22.984 14.4656 22.8854 14.367C22.7868 14.2685 22.6532 14.2131 22.5137 14.2131H14.6781C14.5387 14.2131 14.405 14.2685 14.3064 14.367C14.2078 14.4656 14.1525 14.5993 14.1525 14.7387C14.1525 14.8781 14.2078 15.0118 14.3064 15.1104C14.405 15.209 14.5387 15.2644 14.6781 15.2644Z" fill="#284268"/>
<path d="M14.6781 17.805H26.5598C26.6992 17.805 26.8329 17.7496 26.9315 17.6511C27.03 17.5525 27.0854 17.4188 27.0854 17.2794C27.0854 17.14 27.03 17.0063 26.9315 16.9077C26.8329 16.8091 26.6992 16.7537 26.5598 16.7537H14.6781C14.5387 16.7537 14.405 16.8091 14.3064 16.9077C14.2078 17.0063 14.1525 17.14 14.1525 17.2794C14.1525 17.4188 14.2078 17.5525 14.3064 17.6511C14.405 17.7496 14.5387 17.805 14.6781 17.805Z" fill="#284268"/>
<path d="M36.1786 21.5897L32.3276 25.4357V7.79138C32.3262 7.37852 32.2434 6.96998 32.0839 6.58918C31.9244 6.20837 31.6913 5.86279 31.398 5.57224C31.1047 5.28169 30.7569 5.05188 30.3746 4.89598C29.9923 4.74009 29.583 4.66117 29.1701 4.66375H28.2976V3.29058C28.2976 2.43087 27.9561 1.60638 27.3482 0.998479C26.7402 0.390577 25.9158 0.0490608 25.0561 0.0490608C24.1963 0.0490608 23.3719 0.390577 22.764 0.998479C22.156 1.60638 21.8145 2.43087 21.8145 3.29058V4.66375H10.4254V3.24152C10.4254 2.38181 10.0839 1.55732 9.476 0.949418C8.8681 0.341516 8.04361 0 7.1839 0C6.3242 0 5.49971 0.341516 4.8918 0.949418C4.2839 1.55732 3.94239 2.38181 3.94239 3.24152V4.66375H3.12587C2.29684 4.66375 1.50176 4.99309 0.915547 5.5793C0.329332 6.16552 0 6.96059 0 7.78963V10.7964C0 10.9358 0.0553809 11.0695 0.15396 11.168C0.252538 11.2666 0.38624 11.322 0.525651 11.322C0.665063 11.322 0.798764 11.2666 0.897343 11.168C0.995922 11.0695 1.0513 10.9358 1.0513 10.7964V7.79138C1.0513 7.2407 1.27006 6.71258 1.65944 6.3232C2.04883 5.93381 2.57695 5.71506 3.12763 5.71506H3.94239V7.42824C3.94377 7.57306 4.00012 7.71194 4.10004 7.81677C4.19996 7.9216 4.33598 7.98455 4.48056 7.99288H9.8713C10.0176 7.9852 10.1556 7.92294 10.2582 7.8184C10.3608 7.71385 10.4205 7.57463 10.4254 7.42824V5.71506H21.8145V7.42824C21.8145 7.71858 22.0364 7.99288 22.3267 7.99288H27.8157C28.1061 7.99288 28.2976 7.71858 28.2976 7.42824V5.71506H29.1701C29.445 5.71228 29.7177 5.76388 29.9725 5.86687C30.2273 5.96987 30.4593 6.12223 30.655 6.3152C30.8508 6.50816 31.0064 6.73792 31.113 6.99126C31.2196 7.2446 31.2751 7.51652 31.2763 7.79138V26.4848L23.8471 33.8982C23.7924 33.9524 23.7502 34.018 23.7235 34.0902L22.7622 36.7285H14.678C14.5386 36.7285 14.4049 36.7839 14.3063 36.8824C14.2078 36.981 14.1524 37.1147 14.1524 37.2541C14.1524 37.3936 14.2078 37.5273 14.3063 37.6258C14.4049 37.7244 14.5386 37.7798 14.678 37.7798H22.3788L21.4976 40.1978C21.4634 40.2918 21.4567 40.3936 21.4783 40.4913C21.5 40.589 21.549 40.6784 21.6198 40.7492C21.6905 40.8199 21.7799 40.869 21.8776 40.8907C21.9753 40.9124 22.0771 40.9058 22.1711 40.8716L28.2783 38.6463C28.3505 38.62 28.416 38.5781 28.4703 38.5237L31.2763 35.7122V40.8461C31.2763 41.4037 31.0547 41.9385 30.6604 42.3329C30.2661 42.7272 29.7313 42.9487 29.1737 42.9487H3.12587C2.57566 42.9487 2.04799 42.7301 1.65893 42.3411C1.26987 41.952 1.0513 41.4243 1.0513 40.8741V14.4759C1.0513 14.3365 0.995922 14.2028 0.897343 14.1042C0.798764 14.0056 0.665063 13.9503 0.525651 13.9503C0.38624 13.9503 0.252538 14.0056 0.15396 14.1042C0.0553809 14.2028 0 14.3365 0 14.4759V40.8741C0 41.7032 0.329332 42.4982 0.915547 43.0844C1.50176 43.6707 2.29684 44 3.12587 44H29.1701C30.0068 43.9975 30.8085 43.6641 31.4001 43.0725C31.9917 42.4809 32.3251 41.6792 32.3276 40.8426V34.659L40.7789 26.192C41.3892 25.5819 41.7321 24.7545 41.7323 23.8916C41.7324 23.0287 41.3898 22.2011 40.7798 21.5908C40.1697 20.9805 39.3422 20.6376 38.4794 20.6374C37.6165 20.6372 36.7888 20.9799 36.1786 21.5899V21.5897ZM9.37412 6.94158H4.99369V3.24152C4.99369 2.66064 5.22444 2.10355 5.63519 1.6928C6.04593 1.28206 6.60302 1.0513 7.1839 1.0513C7.76478 1.0513 8.32187 1.28206 8.73262 1.6928C9.14336 2.10355 9.37412 2.66064 9.37412 3.24152V6.94158ZM27.2463 6.94158H22.8658V3.29058C22.8658 2.7097 23.0966 2.15261 23.5073 1.74186C23.9181 1.33112 24.4752 1.10036 25.0561 1.10036C25.6369 1.10036 26.194 1.33112 26.6048 1.74186C27.0155 2.15261 27.2463 2.7097 27.2463 3.29058V6.94158ZM34.7567 24.4927L35.9581 25.6944L26.1713 35.4813L24.9606 34.2705L34.7567 24.4927ZM22.8714 39.4969L23.3211 38.2632L24.1051 39.0473L22.8714 39.4969ZM25.1948 38.6503L23.7182 37.1736L24.4284 35.2247L27.1438 37.94L25.1948 38.6503ZM28.0983 37.4077L26.9147 36.2243L36.7016 26.4377L37.8755 27.6121L28.0983 37.4077ZM40.0348 25.4491L38.6187 26.8681L35.5007 23.7501L36.9194 22.3344C37.3332 21.9245 37.8925 21.6952 38.4749 21.6966C39.0573 21.6979 39.6155 21.9299 40.0274 22.3418C40.4392 22.7536 40.6712 23.3118 40.6726 23.8942C40.674 24.4767 40.4446 25.036 40.0347 25.4498L40.0348 25.4491Z" fill="#284268"/>
</svg>
